<svg id="Layer_1" data-name="Layer 1" xmlns="http://www.w3.org/2000/svg" viewBox="0 0 19.85 14.28">
  <defs>
    <style>
      .cls-1 {
        fill: #c0def4;
      }
    </style>
  </defs>
  <path class="cls-1" d="M17.4,1.78A8.42,8.42,0,0,0,12.63,0l-.24.27a11.38,11.38,0,0,1,4.23,2.16A13.89,13.89,0,0,0,11.5.8a14.47,14.47,0,0,0-3.43,0,1.55,1.55,0,0,0-.29,0A12.63,12.63,0,0,0,3.93,1.94c-.63.29-1,.49-1,.49A11.53,11.53,0,0,1,7.39.2L7.22,0A8.4,8.4,0,0,0,2.45,1.78,22.77,22.77,0,0,0,0,11.69a6.16,6.16,0,0,0,5.18,2.59s.63-.77,1.14-1.42a5.23,5.23,0,0,1-3-2s.17.12.47.29l.07,0,.15.08a9.17,9.17,0,0,0,1.25.58,13.55,13.55,0,0,0,2.49.73,11.76,11.76,0,0,0,4.4,0,11.26,11.26,0,0,0,2.47-.73,9.52,9.52,0,0,0,2-1,5.37,5.37,0,0,1-3.07,2c.51.64,1.12,1.38,1.12,1.38a6.22,6.22,0,0,0,5.2-2.59A22.77,22.77,0,0,0,17.4,1.78ZM6.75,10.11A1.82,1.82,0,0,1,5,8.23,1.82,1.82,0,0,1,6.75,6.34,1.8,1.8,0,0,1,8.48,8.23,1.81,1.81,0,0,1,6.75,10.11Zm6.2,0a1.82,1.82,0,0,1-1.73-1.88A1.81,1.81,0,0,1,13,6.34a1.81,1.81,0,0,1,1.73,1.89A1.81,1.81,0,0,1,13,10.11Z"/>
</svg>
