<?xml version="1.0" encoding="utf-8"?>
<!-- Generator: Adobe Illustrator 26.0.0, SVG Export Plug-In . SVG Version: 6.00 Build 0)  -->
<svg version="1.1" id="Layer_1" xmlns="http://www.w3.org/2000/svg" xmlns:xlink="http://www.w3.org/1999/xlink" x="0px" y="0px"
	 viewBox="0 0 32 32" style="enable-background:new 0 0 32 32;" xml:space="preserve">
<style type="text/css">
	.st0{fill:#151719;}
	.st1{fill:#C0DEF4;}
	.st2{clip-path:url(#SVGID_00000124155709958234240150000009847805207489602485_);}
	.st3{fill:#D4ECF6;}
	.st4{fill:#172B44;}
	.st5{clip-path:url(#SVGID_00000106129512941422510640000013009674411758773926_);}
	.st6{fill:#1E4260;}
	.st7{clip-path:url(#SVGID_00000058558052013508037420000015447271083195568001_);}
	.st8{clip-path:url(#SVGID_00000135677272936645584780000013694465231840120448_);}
	.st9{clip-path:url(#SVGID_00000142875696296950214490000012094349052128055452_);fill:#101E32;}
	.st10{clip-path:url(#SVGID_00000142875696296950214490000012094349052128055452_);}
	.st11{fill:#598DC9;}
	.st12{fill:#4878B1;}
	.st13{clip-path:url(#SVGID_00000062906862671479131500000001896838643559435417_);fill:#101E32;}
	.st14{clip-path:url(#SVGID_00000062906862671479131500000001896838643559435417_);}
	.st15{fill:#D4DE24;}
	.st16{clip-path:url(#SVGID_00000157295173259199555930000004722566729317042817_);}
	.st17{clip-path:url(#SVGID_00000155842728854742556570000014385039653802006705_);}
	.st18{fill:#2C4D24;}
	.st19{clip-path:url(#SVGID_00000041262417365681121560000010613663988585592247_);}
	.st20{fill:#E5E42F;}
	.st21{clip-path:url(#SVGID_00000029035356030318089760000010936964786052699803_);}
	.st22{fill:#223A1C;}
	.st23{clip-path:url(#SVGID_00000164479189227041544260000011486206188815804601_);}
	.st24{clip-path:url(#SVGID_00000039833408632596808790000003110333095406764200_);}
	.st25{clip-path:url(#SVGID_00000044891612457568132250000014586774335037326734_);}
	.st26{fill:#ECE725;}
	.st27{clip-path:url(#SVGID_00000143596958210771118350000013080902561775376042_);}
	.st28{clip-path:url(#SVGID_00000091734848213878281120000007902340074351283903_);}
	.st29{clip-path:url(#SVGID_00000164483632335041272570000003733400647279132079_);}
	.st30{clip-path:url(#SVGID_00000174590242902405523180000000421410760605333144_);}
	.st31{clip-path:url(#SVGID_00000101807432385121273260000007802156346039530671_);}
	.st32{fill:#101E32;}
	.st33{fill:#337FD3;}
	.st34{fill:none;stroke:#101E32;stroke-width:4.4269;stroke-miterlimit:10;}
	.st35{fill:#5A8ECB;}
	.st36{fill:#D85226;}
	.st37{fill:none;stroke:#D85226;stroke-width:6.4;stroke-miterlimit:10;}
	.st38{fill:none;stroke:#D4DE24;stroke-width:6.4;stroke-miterlimit:10;}
	.st39{fill:none;stroke:#48ADA8;stroke-width:6.4;stroke-miterlimit:10;}
	.st40{fill:none;stroke:#D4DE24;stroke-width:5.0857;stroke-miterlimit:10;}
	.st41{fill:none;stroke:#48ADA8;stroke-width:5.0857;stroke-miterlimit:10;}
	.st42{fill:none;stroke:#E28E29;stroke-width:5.0857;stroke-miterlimit:10;}
	.st43{fill:none;stroke:#89D2F7;stroke-width:5.0857;stroke-miterlimit:10;}
	.st44{fill:none;stroke:#4073F2;stroke-width:5.0857;stroke-miterlimit:10;}
	.st45{fill:none;stroke:#D85226;stroke-width:5.0857;stroke-miterlimit:10;}
	.st46{fill:none;stroke:#D85226;stroke-width:5.5347;stroke-miterlimit:10;}
	.st47{fill:none;stroke:#48ADA8;stroke-width:5.5347;stroke-miterlimit:10;}
	.st48{fill:none;stroke:#C0DEF4;stroke-width:5.5347;stroke-miterlimit:10;}
	.st49{fill:none;stroke:#F09920;stroke-width:5.5347;stroke-miterlimit:10;}
	.st50{fill:#26316B;}
	.st51{fill:#F09920;}
	.st52{fill:#4073F2;}
	.st53{fill:#48ADA8;}
	.st54{fill:none;stroke:#48ADA8;stroke-width:0.3562;stroke-miterlimit:10;}
	.st55{fill:none;stroke:#48ADA8;stroke-width:0.7766;stroke-miterlimit:10;}
	.st56{fill:#C0DFF5;}
	.st57{opacity:0.69;}
	.st58{fill:#4D7AB0;}
	.st59{fill:#416897;}
	.st60{fill:#284364;}
	.st61{fill:#34557D;}
	.st62{fill:#1C304B;}
	.st63{opacity:0.23;}
	.st64{fill:none;stroke:#284364;stroke-width:12;stroke-linecap:round;stroke-linejoin:round;stroke-miterlimit:10;}
</style>
<g>
	<path class="st15" d="M15.87,26.33c-0.04-0.16-0.07-0.27-0.09-0.34c-0.03-0.03-0.05-0.07-0.06-0.11l-0.02-0.07l-0.09-0.3
		l-0.02-0.07c-0.04-0.07-0.06-0.14-0.06-0.22c0-0.02,0-0.03,0-0.05l-0.17-0.64c-0.08-0.21-0.13-0.39-0.17-0.58
		c-0.04-0.2-0.07-0.3-0.08-0.34c0-0.01-0.01-0.02-0.01-0.03l-0.4-1.79l-0.33-1.35l-0.51-1.78c0-0.01-0.01-0.02-0.01-0.03
		c-0.01-0.03-0.53-3.15-0.69-3.79c-0.16-0.63-0.33-1.26-0.49-1.91c-0.01-0.02-0.02-0.04-0.03-0.06c-0.05-0.2-0.1-0.43-0.15-0.69
		c-0.05-0.24-0.1-0.45-0.17-0.63c0-0.01-0.01-0.02-0.01-0.02l-0.48-1.72c0-0.01,0-0.02-0.01-0.03l-0.11-0.62L10.95,6
		c0-0.01,0-0.01,0-0.02c-0.02-0.13-0.08-0.35-0.16-0.65c-0.09-0.31-0.16-0.58-0.21-0.8c-0.04-0.15-0.12-0.32-0.23-0.49
		C10.32,4,10.18,3.87,9.64,3.87H7.69c-0.49,0-0.89,0.03-1.19,0.1C6.23,4.03,6.01,4.13,5.86,4.25C5.72,4.36,5.6,4.52,5.49,4.71
		l-2.27,9.22c-0.1,0.41-0.19,0.84-0.27,1.27c-0.09,0.44-0.16,0.87-0.24,1.28c0,0.02-0.01,0.04-0.02,0.06
		c-0.12,0.61-0.23,1.22-0.35,1.85c-0.12,0.67-0.29,1.33-0.48,1.98c-0.12,0.44-0.23,0.91-0.34,1.39c-0.11,0.48-0.23,0.96-0.35,1.42
		l-0.48,1.91c0,0.01-0.01,0.02-0.01,0.04c-0.04,0.1-0.09,0.28-0.13,0.52c-0.05,0.26-0.11,0.53-0.17,0.8
		c-0.06,0.27-0.12,0.53-0.18,0.78c-0.06,0.25-0.1,0.42-0.13,0.54c-0.15,0.68-0.02,0.8-0.02,0.8c0.07,0.06,0.25,0.15,0.7,0.15h2.09
		h2.09c0.33,0,0.51-0.06,0.6-0.11c0.12-0.07,0.19-0.14,0.23-0.23c0.05-0.11,0.07-0.22,0.07-0.33c0-0.17,0.01-0.31,0.05-0.43
		c0-0.01,0-0.01,0.01-0.02c0.01-0.03,0.03-0.12,0.06-0.3c0.02-0.16,0.05-0.32,0.07-0.49c0.02-0.16,0.04-0.31,0.05-0.46
		c0.01-0.14,0.02-0.24,0.02-0.3c0-0.01,0-0.02,0-0.03c0.05-0.43,0.12-0.85,0.21-1.27c0.09-0.41,0.19-0.84,0.32-1.26l0.26-0.89
		c0.03-0.12,0.14-0.2,0.27-0.2h0.39c0.12,0,0.23-0.01,0.33-0.03c0.02,0,0.04-0.01,0.05-0.01c0.16,0,0.33-0.01,0.52-0.03
		c0.21-0.03,0.42-0.04,0.62-0.04c0.14,0,0.25,0.1,0.27,0.23l0.04,0.22l0.33,1.63l0.59,3.36c0.05,0.32,0.12,0.58,0.23,0.78
		c0.02,0.03,0.14,0.2,0.86,0.2h3.56c0.49,0,0.81-0.14,0.97-0.41c0.19-0.31,0.25-0.63,0.18-0.98C16.01,26.97,15.94,26.63,15.87,26.33
		z M8.97,18.39c-0.05,0.06-0.13,0.1-0.21,0.1H7.92c-0.19,0-0.35-0.01-0.5-0.02c-0.1-0.01-0.33-0.03-0.4-0.23
		c-0.03-0.09-0.02-0.18,0.02-0.26c0.01-0.06,0.03-0.22,0.07-0.67c0.02-0.24,0.07-0.59,0.13-0.96c0.06-0.37,0.12-0.76,0.14-1.04
		l0.36-3.5c0.02-0.14,0.14-0.24,0.27-0.24c0,0,0,0,0,0c0.14,0,0.25,0.1,0.27,0.24l0.74,6.36C9.04,18.25,9.02,18.33,8.97,18.39z"/>
	<path class="st15" d="M31.49,9.96c-0.34-0.93-0.81-1.76-1.39-2.48c-0.58-0.72-1.26-1.33-2.01-1.83c-0.76-0.5-1.57-0.9-2.4-1.17
		c-0.16-0.04-0.38-0.1-0.63-0.15c-0.26-0.06-0.54-0.11-0.83-0.16c-0.28-0.05-0.57-0.09-0.85-0.13c-0.28-0.04-0.5-0.06-0.67-0.09
		c-0.37-0.03-0.64-0.05-0.86-0.07c-0.22-0.02-0.43-0.04-0.63-0.04c-0.19,0-0.38,0.02-0.58,0.07c-0.2,0.04-0.45,0.12-0.73,0.24
		c-0.01,0-0.02,0.01-0.03,0.01c-0.5,0.15-0.85,0.34-1.02,0.55c-0.17,0.21-0.25,0.55-0.25,1.02l-0.15,21.48
		c0,0.08-0.01,0.19-0.02,0.33c-0.01,0.12-0.02,0.29-0.02,0.5c0,0.17,0.03,0.3,0.08,0.39c0.05,0.09,0.11,0.16,0.18,0.21
		c0.07,0.05,0.14,0.08,0.2,0.08c0.11,0.01,0.16,0.02,0.18,0.02h4.15c0.02,0,0.08,0,0.19-0.02c0.05-0.01,0.12-0.04,0.19-0.08
		c0.07-0.05,0.13-0.12,0.18-0.21c0.05-0.09,0.07-0.22,0.07-0.39c0-0.39,0.01-0.85,0.02-1.36c0.01-0.51,0.02-1.04,0.02-1.56
		c0-0.54,0.01-1.06,0.02-1.55c0.01-0.5,0.02-0.94,0.02-1.29c0-0.15,0.12-0.28,0.28-0.28c0.48,0,0.96-0.04,1.43-0.1
		c0.41-0.05,0.84-0.12,1.3-0.23c0.44-0.1,0.84-0.25,1.18-0.43c1.24-0.66,2.2-1.71,2.87-3.11c0.68-1.42,1.02-3.12,1.02-5.06
		C32,11.93,31.83,10.89,31.49,9.96z M26.53,13.53c0,0.42-0.03,0.9-0.09,1.46c-0.06,0.54-0.18,1.05-0.36,1.52
		c-0.18,0.47-0.72,1.12-1.12,1.34c-0.19,0.1-0.44,0.16-0.77,0.18c-0.25,0.01-0.46-0.2-0.45-0.45L24,9.18c0.01-0.3,0.31-0.5,0.6-0.4
		C24.81,8.87,25,8.97,25.1,9.08c0.07,0.09,0.16,0.18,0.25,0.28c0.29,0.31,0.64,0.9,0.77,1.31c0.11,0.36,0.2,0.74,0.26,1.15
		C26.48,12.4,26.53,12.98,26.53,13.53z"/>
</g>
</svg>
