<svg id="Layer_1" data-name="Layer 1" xmlns="http://www.w3.org/2000/svg" viewBox="0 0 16.92 16.92">
  <defs>
    <style>
      .cls-1 {
        fill: #c0def4;
      }
    </style>
  </defs>
  <g>
    <path class="cls-1" d="M8.46,1.52c2.26,0,2.53,0,3.42.05a5,5,0,0,1,1.57.29,2.74,2.74,0,0,1,1,.64,2.51,2.51,0,0,1,.63,1A4.43,4.43,0,0,1,15.34,5c.05.89.05,1.16.05,3.42s0,2.53-.05,3.42a4.43,4.43,0,0,1-.29,1.57,2.78,2.78,0,0,1-1.6,1.6,4.43,4.43,0,0,1-1.57.29c-.89.05-1.16.05-3.42.05s-2.53,0-3.42-.05a4.43,4.43,0,0,1-1.57-.29,2.51,2.51,0,0,1-1-.63,2.74,2.74,0,0,1-.64-1,5,5,0,0,1-.29-1.57c0-.89-.05-1.16-.05-3.42s0-2.53.05-3.42a5,5,0,0,1,.29-1.57,2.65,2.65,0,0,1,.64-1,2.65,2.65,0,0,1,1-.64A5,5,0,0,1,5,1.57c.89,0,1.16-.05,3.42-.05M8.46,0C6.16,0,5.87,0,5,.05a6.16,6.16,0,0,0-2,.39,4.19,4.19,0,0,0-1.5,1,4.19,4.19,0,0,0-1,1.5A6.16,6.16,0,0,0,.05,5c0,.9,0,1.19,0,3.49S0,11,.05,12A6.16,6.16,0,0,0,.44,14a4.19,4.19,0,0,0,1,1.5,4,4,0,0,0,1.5,1,6.13,6.13,0,0,0,2.05.4c.9,0,1.19.05,3.49.05s2.58,0,3.49-.05a6.13,6.13,0,0,0,2.05-.4A4.26,4.26,0,0,0,16.47,14a6.13,6.13,0,0,0,.4-2.05c0-.91.05-1.19.05-3.49s0-2.59-.05-3.49a6.13,6.13,0,0,0-.4-2,4,4,0,0,0-1-1.5,4.19,4.19,0,0,0-1.5-1A6.16,6.16,0,0,0,12,.05C11,0,10.76,0,8.46,0Z"/>
    <path class="cls-1" d="M8.46,4.12A4.34,4.34,0,1,0,12.8,8.46,4.34,4.34,0,0,0,8.46,4.12Zm0,7.16a2.82,2.82,0,1,1,2.82-2.82A2.82,2.82,0,0,1,8.46,11.28Z"/>
    <circle class="cls-1" cx="12.97" cy="3.94" r="1.02"/>
  </g>
</svg>
