<svg id="Layer_1" data-name="Layer 1" xmlns="http://www.w3.org/2000/svg" viewBox="0 0 18.32 14.89">
  <defs>
    <style>
      .cls-1 {
        fill: #c0dff5;
      }
    </style>
  </defs>
  <path id="Logo" class="cls-1" d="M16.44,3.71a3.85,3.85,0,0,1,0,.48,10.63,10.63,0,0,1-10.7,10.7h0A10.6,10.6,0,0,1,0,13.2c.3,0,.6.05.89.05a7.51,7.51,0,0,0,4.67-1.61A3.76,3.76,0,0,1,2.05,9,3.63,3.63,0,0,0,3.75,9a3.75,3.75,0,0,1-3-3.68v0a3.69,3.69,0,0,0,1.71.47,3.75,3.75,0,0,1-1.16-5A10.66,10.66,0,0,0,9,4.61a3.77,3.77,0,0,1,6.41-3.43A7.25,7.25,0,0,0,17.81.27a3.75,3.75,0,0,1-1.65,2.08,7.69,7.69,0,0,0,2.16-.59A7.91,7.91,0,0,1,16.44,3.71Z"/>
</svg>
