<svg id="Layer_1" data-name="Layer 1" xmlns="http://www.w3.org/2000/svg" viewBox="0 0 169.64 140.64">
  <defs>
    <style>
      .cls-1 {
        fill: #d85226;
        fill-rule: evenodd;
      }
    </style>
  </defs>
  <path class="cls-1" d="M106.55,99.43a2,2,0,0,0,2-2v-2h2a2,2,0,0,0,0-4h-2v-2a2,2,0,1,0-4,0v2h-2a2,2,0,1,0,0,4h2v2a2,2,0,0,0,2,2Zm27.65-77a2,2,0,1,0,4,0,2,2,0,1,0,0-3.95,2,2,0,1,0-4,0,2,2,0,0,0,0,3.95ZM84.82,32.27A27.68,27.68,0,0,0,57.17,59.92a2,2,0,1,0,3.95,0,23.7,23.7,0,0,1,47.4,0,2,2,0,0,0,4,0A27.69,27.69,0,0,0,84.82,32.27ZM118.4,61.9a2,2,0,0,0,2-2,35.56,35.56,0,0,0-71.11,0,2,2,0,1,0,3.95,0,31.61,31.61,0,0,1,63.21,0,2,2,0,0,0,2,2Zm-75.06,0a2,2,0,0,0,2-2,39.51,39.51,0,1,1,79,0,2,2,0,1,0,4,0,43.46,43.46,0,1,0-86.91,0,2,2,0,0,0,2,2Zm32,17.81a2,2,0,0,1,0,3.87L66.75,85.3,65,93.89a2,2,0,0,1-3.87,0L59.44,85.3l-8.59-1.72a2,2,0,0,1,0-3.87L59.44,78l1.72-8.58a2,2,0,0,1,3.87,0L66.75,78ZM102.6,14.49a2,2,0,0,0,4,0,2,2,0,0,0,0-4,2,2,0,1,0-4,0,2,2,0,1,0,0,4Zm-59.26,2h2v2a2,2,0,0,0,4,0v-2h2a2,2,0,1,0,0-4h-2v-2a2,2,0,1,0-4,0v2h-2a2,2,0,0,0,0,4ZM82.85,42.14V109.3a2,2,0,1,0,4,0V42.14a2,2,0,0,0-4,0Zm61.23-2v77a9.89,9.89,0,0,1-9.88,9.88H35.44a9.89,9.89,0,0,1-9.88-9.88v-77a2,2,0,1,1,4,0v77a5.94,5.94,0,0,0,5.93,5.93H82.85v-4.64A42.71,42.71,0,0,0,67,115.23,126.92,126.92,0,0,0,36,119.1a2,2,0,0,1-.54.08,2,2,0,0,1-2-2V30.29a2,2,0,0,1,1.44-1.9,106.85,106.85,0,0,1,12-2.45,2,2,0,1,1,.6,3.9c-4.65.72-8.2,1.52-10.05,2v82.84A133.26,133.26,0,0,1,67,111.28a46.45,46.45,0,0,1,17.86,3.78c2.61-1,11.07-3.78,19.67-3.78a111.81,111.81,0,0,1,27.66,3.3V31.69a48.86,48.86,0,0,0-10.16-1.8,2,2,0,0,1-1.8-2.14A2,2,0,0,1,122.4,26c8.2.68,12.41,2.45,12.58,2.53a2,2,0,0,1,1.2,1.81V117.2a2,2,0,0,1-.82,1.61,2,2,0,0,1-1.78.27c-.12,0-11.8-3.85-29-3.85-7.39,0-14.89,2.35-17.77,3.35v4.55h47.4a5.94,5.94,0,0,0,5.93-5.93v-77a2,2,0,1,1,4,0Z"/>
</svg>
