<svg id="Layer_1" data-name="Layer 1" xmlns="http://www.w3.org/2000/svg" viewBox="0 0 169.64 140.64">
  <defs>
    <style>
      .cls-1 {
        fill: #d4de24;
      }
    </style>
  </defs>
  <g>
    <path class="cls-1" d="M80.43,100.57a3.26,3.26,0,0,0-1,4.51c3.31,5.23,8.47,15.13,5.73,22.65A3.26,3.26,0,1,0,91.28,130c3.52-9.65-1.51-20.75-6.34-28.38A3.26,3.26,0,0,0,80.43,100.57Z"/>
    <path class="cls-1" d="M90.09,39.25l.27-.14a3.26,3.26,0,0,0,1.16-4.47,46.71,46.71,0,0,1-4.26-9.3l19.17,7a3.24,3.24,0,0,0,4.18-1.95,3.27,3.27,0,0,0-2-4.19L86.12,18a13.5,13.5,0,0,1,.77-4.19,3.26,3.26,0,0,0-6.13-2.25c-2.6,7.13-.82,16.27,5.14,26.41A3.26,3.26,0,0,0,90.09,39.25Z"/>
    <path class="cls-1" d="M126.21,24.61A3.27,3.27,0,0,0,122,26.56c-2.21,6.05-9.3,10-14.87,12.2a66.29,66.29,0,0,1-9.33,2.88l-3,.48c-1.09.16-26.74,4.3-32.44,19.93C59,71.33,63.57,82,68,89.35a3.26,3.26,0,0,0,4.17,1.26,2,2,0,0,0,.32-.18A3.26,3.26,0,0,0,73.6,86a48.24,48.24,0,0,1-4.44-9.21l18,6.57a3.27,3.27,0,0,0,2.5-.1,3.22,3.22,0,0,0,1.69-1.85,3.27,3.27,0,0,0-2-4.19l-21.71-7.9a13.91,13.91,0,0,1,.77-5,14.45,14.45,0,0,1,3.24-5l21.36,7.78a3.27,3.27,0,0,0,2.5-.1,3.27,3.27,0,0,0-.27-6L78,54.61a45.91,45.91,0,0,1,5.37-2.53,63.73,63.73,0,0,1,9.33-2.88l3-.48c1.1-.16,26.74-4.31,32.44-19.94A3.28,3.28,0,0,0,126.21,24.61Z"/>
    <path class="cls-1" d="M105,53.51a3.27,3.27,0,1,0-5.68,3.25c3.27,5.7,6.68,13.85,4.32,20.32-2.2,6-9.3,10-14.87,12.19a65.91,65.91,0,0,1-11.21,3.3l-1.2.18c-1.09.17-26.74,4.31-32.43,19.94A3.26,3.26,0,0,0,50,114.92a13.59,13.59,0,0,1,2-3.54l23.4,8.54a3.23,3.23,0,0,0,2.5-.11A3.3,3.3,0,0,0,79.61,118a3.26,3.26,0,0,0-2-4.18l-20.09-7.32a41,41,0,0,1,7.34-3.74,65.9,65.9,0,0,1,11.21-3.29l1.2-.19c1.09-.16,26.74-4.31,32.44-19.94C112.3,72.33,110.64,63.41,105,53.51Z"/>
    <path class="cls-1" d="M118.51,108.82h-1.76v-1.76a1.75,1.75,0,0,0-3.5,0v1.76h-1.76a1.76,1.76,0,0,0,0,3.51h1.76v1.75a1.75,1.75,0,0,0,3.5,0v-1.75h1.76a1.76,1.76,0,0,0,0-3.51Z"/>
    <path class="cls-1" d="M49.26,72.31A1.76,1.76,0,0,0,51,70.55V68.8h1.75a1.76,1.76,0,1,0,0-3.51H51V63.53a1.76,1.76,0,0,0-3.51,0v1.76H45.75a1.76,1.76,0,0,0,0,3.51h1.76v1.75A1.76,1.76,0,0,0,49.26,72.31Z"/>
    <path class="cls-1" d="M50.69,39a1.75,1.75,0,0,0,3.44,0l1.53-7.63,7.62-1.52a1.75,1.75,0,0,0,0-3.44l-7.62-1.53-1.53-7.62a1.75,1.75,0,0,0-3.44,0l-1.52,7.62-7.63,1.53a1.75,1.75,0,0,0,0,3.44l7.63,1.52Z"/>
    <path class="cls-1" d="M133.66,92a1.76,1.76,0,1,0-3.51,0,1.76,1.76,0,1,0,0,3.51,1.76,1.76,0,0,0,3.51,0,1.76,1.76,0,0,0,0-3.51Z"/>
    <path class="cls-1" d="M31.5,47.53a1.76,1.76,0,0,0-3.51,0A1.76,1.76,0,1,0,28,51a1.76,1.76,0,1,0,3.51,0,1.76,1.76,0,0,0,0-3.51Z"/>
  </g>
</svg>
