<svg id="Layer_1" data-name="Layer 1" xmlns="http://www.w3.org/2000/svg" viewBox="0 0 169.64 140.64">
  <defs>
    <style>
      .cls-1, .cls-2 {
        fill: #48ada8;
      }

      .cls-2 {
        fill-rule: evenodd;
      }
    </style>
  </defs>
  <g>
    <g>
      <path class="cls-1" d="M144.75,48.93,149,27.14a4.73,4.73,0,1,0-9.16-2.33l-4.09,13a68.06,68.06,0,0,0-30.5-16.85,69.18,69.18,0,0,0-29.38-1.09,2.31,2.31,0,0,0,.84,4.54h0a64.14,64.14,0,0,1,27.4,1,63.12,63.12,0,0,1,30.07,17.36L118.32,93.25l-15.92-4A16.43,16.43,0,0,0,82.49,101a11.52,11.52,0,0,1-6.74,7.8,11.8,11.8,0,0,1-10.56-.59c-20.53-11.63-31-32.47-26.09-51.81A42,42,0,0,1,60,30.32a2.31,2.31,0,1,0-2.25-4,46.59,46.59,0,0,0-23.14,29c-5.44,21.4,5.9,44.34,28.33,57a16.42,16.42,0,0,0,14.66.85,16.16,16.16,0,0,0,9.35-11,11.76,11.76,0,0,1,14.29-8.5l15.65,4-1.28,4.1a4.54,4.54,0,0,0-.12.5,9,9,0,0,0,1,6.93,11.5,11.5,0,0,0-7.21,8,11.24,11.24,0,0,0,1.42,7.95,12.42,12.42,0,0,1,1.3,9.4,2.3,2.3,0,0,0,1.67,2.8c8.18,2.08,16.4-8.32,18-14.47a11.56,11.56,0,0,0-2.53-10.45,9,9,0,0,0,4.23-5.58,4.54,4.54,0,0,0,.12-.5l1-5a16.14,16.14,0,0,0,13.86-9.21,45.14,45.14,0,0,0,2.51-7.26A46.3,46.3,0,0,0,144.75,48.93ZM117,132.84a17.32,17.32,0,0,0-2.09-9.67c-1-2.11-1.51-3.39-1.13-4.89a6.92,6.92,0,1,1,13.41,3.42C126.26,125.47,121.43,131.84,117,132.84Zm6.12-24.08a4.43,4.43,0,0,1-3.17-5.38l24.23-77.13-2.2-.68,2.47.75L129,105.48l-.06.25a4.44,4.44,0,0,1-5.37,3.13Zm20.93-18.47a11.51,11.51,0,0,1-8.76,6.38l7.94-40.58A39.59,39.59,0,0,1,144.08,90.29Z"/>
      <path class="cls-1" d="M66.64,26.75a2.32,2.32,0,0,0,1.17,0l.49-.14.19-.07a2.31,2.31,0,0,0-1.41-4.41h0l-.47.17a2.31,2.31,0,0,0,0,4.46Z"/>
      <path class="cls-1" d="M93,69a12.69,12.69,0,1,0,15.42-9.17A12.69,12.69,0,0,0,93,69Zm20.12,5.12a8.07,8.07,0,1,1-5.83-9.82A8.07,8.07,0,0,1,113.15,74.09Z"/>
      <path class="cls-1" d="M67.82,75.65a8.86,8.86,0,0,0-13.2,6.59,15.18,15.18,0,0,0,7.81,15.62,11.14,11.14,0,0,0,2.17.82,8.83,8.83,0,0,0,6.15-.58,9.23,9.23,0,0,0,4.83-6.84A15.23,15.23,0,0,0,67.82,75.65ZM68.72,94h0a4.8,4.8,0,0,1-4.24-.25,10,10,0,0,1-4.3-4.52,9.81,9.81,0,0,1-1-6.25,4.62,4.62,0,0,1,2.35-3.54,4.17,4.17,0,0,1,3-.24,6.54,6.54,0,0,1,1.27.49,10.58,10.58,0,0,1,5.35,10.69,4.73,4.73,0,0,1-2.39,3.53Z"/>
      <path class="cls-1" d="M46.13,54.9A14.68,14.68,0,0,0,46,64.05a9.28,9.28,0,0,0,5.74,6.08l.52.13c5.16,1.31,10.91-2.6,13-9a14.47,14.47,0,0,0,.16-9.15A9.24,9.24,0,0,0,59.72,46C54.48,44.24,48.32,48.24,46.13,54.9Zm4.39,1.45c1.39-4.15,5-6.88,7.79-5.9a4.64,4.64,0,0,1,2.85,3.11A10,10,0,0,1,61,59.78c-1.38,4.14-4.93,6.86-7.79,5.92a4.64,4.64,0,0,1-2.85-3.11A9.94,9.94,0,0,1,50.52,56.35Z"/>
      <path class="cls-1" d="M91.88,38.5a9.2,9.2,0,0,0-4.95-6.73,14.61,14.61,0,0,0-9.13-1.52c-6.82,1-11.82,6.3-11,11.81a9.2,9.2,0,0,0,5,6.73A12.91,12.91,0,0,0,74.82,50a15.54,15.54,0,0,0,5.92.37C87.67,49.33,92.66,44,91.88,38.5ZM80.09,45.76a10,10,0,0,1-6.14-1,4.63,4.63,0,0,1-2.62-3.35c-.41-3,2.88-6,7.2-6.6a9.81,9.81,0,0,1,6.27,1,4.65,4.65,0,0,1,2.63,3.34C87.73,42.11,84.43,45.15,80.09,45.76Z"/>
      <path class="cls-1" d="M112,33.41c-6.7-1.71-13.43,1.34-14.79,6.68s3,11.22,9.8,12.94,13.43-1.34,14.79-6.68S118.8,35.14,112,33.41Zm-3.85,15.15c-4.23-1.07-7.2-4.45-6.47-7.33s5-4.43,9.18-3.35,7.21,4.43,6.47,7.33S112.39,49.64,108.15,48.56Z"/>
    </g>
    <path class="cls-2" d="M158,113.92a2,2,0,0,0,2-2v-2h2a2,2,0,1,0,0-4h-2v-2a2,2,0,0,0-4,0v2h-2a2,2,0,1,0,0,4h2v2a2,2,0,0,0,2,2Z"/>
    <path class="cls-2" d="M57,14.92a2,2,0,0,0,2-2V11h2a2,2,0,1,0,0-4H59V5a2,2,0,0,0-4,0V7h-2a2,2,0,1,0,0,4h2v2a2,2,0,0,0,2,2Z"/>
    <path class="cls-2" d="M31.78,23.21a2,2,0,0,1,0,3.87L23.2,28.8l-1.72,8.58a2,2,0,0,1-3.87,0L15.89,28.8,7.3,27.08a2,2,0,0,1,0-3.87l8.59-1.72,1.72-8.59a2,2,0,0,1,3.87,0l1.72,8.59Z"/>
    <path class="cls-2" d="M18.05,69A2,2,0,1,0,22,69a2,2,0,1,0,0-4,2,2,0,0,0-3.95,0,2,2,0,1,0,0,4Z"/>
    <path class="cls-2" d="M142.05,131a2,2,0,1,0,3.95,0,2,2,0,1,0,0-3.95,2,2,0,0,0-3.95,0,2,2,0,1,0,0,3.95Z"/>
  </g>
</svg>
