<svg id="Layer_1" data-name="Layer 1" xmlns="http://www.w3.org/2000/svg" viewBox="0 0 403.53 492.13">
  <defs>
    <style>
      .cls-1 {
        opacity: 0.23;
      }

      .cls-2 {
        fill: #4d7ab0;
      }

      .cls-3 {
        fill: #34557d;
      }

      .cls-4 {
        fill: #284364;
      }

      .cls-5 {
        fill: #1c304b;
      }
    </style>
  </defs>
  <g class="cls-1">
    <path class="cls-2" d="M287.43,296.33c.35-1.33.64-2.64.84-3.9a44.53,44.53,0,0,0-5.46-30l-3.69-6.31a44.94,44.94,0,0,0-23.87-19.66l-10.61-3.7a27.36,27.36,0,0,1-14.5-12,26.94,26.94,0,0,1-3.66-15.32A24.27,24.27,0,0,0,215.92,184l-14.68-10a12.45,12.45,0,0,0-13.21-.48,12.37,12.37,0,0,0-4.47,16.94l1.15,2a13.37,13.37,0,0,1,1.39,10.23,13.52,13.52,0,0,1-4,6.53,1.29,1.29,0,0,1-1,.31,1.26,1.26,0,0,1-.9-.61l-54.75-93.63a7,7,0,0,1,2.49-9.47,5.25,5.25,0,0,0,2.54-3.64,5.17,5.17,0,0,0-1.16-4.24L94.46,56.74a8.92,8.92,0,0,0-11.29-2l-13,7.53a8.92,8.92,0,0,0-4,10.49L67,75.18a1.27,1.27,0,0,1-.56,1.49l-3.76,2.17a3.4,3.4,0,0,0-1.22,4.62,3.35,3.35,0,0,0,4.6,1.22l2.1-1.2a1.25,1.25,0,0,1,1.82.69L73,93.34a1.26,1.26,0,0,1-.56,1.48L66.86,98.1a3.29,3.29,0,0,0-1.57,2,3.38,3.38,0,0,0,5,3.79l3.94-2.29a1.24,1.24,0,0,1,1.08-.09,1.26,1.26,0,0,1,.75.78l3,9.18a1.25,1.25,0,0,1-.56,1.48l-4.6,2.67a3.38,3.38,0,1,0,3.39,5.85l2.92-1.7a1.24,1.24,0,0,1,1.08-.09,1.27,1.27,0,0,1,.75.77l.34,1A18.09,18.09,0,0,0,98.7,133.85l.31,0a1.25,1.25,0,0,1,1,.62L149.6,219.3a1.25,1.25,0,0,1-.86,1.87,13.69,13.69,0,0,1-14.18-6.48L124.81,198a13.2,13.2,0,0,0-18-4.73,13,13,0,0,0-6.36,9.41l-.82,5.61a51.73,51.73,0,0,0,28.69,54.22,27.14,27.14,0,0,1,14.86,29.17l-2,11a44.56,44.56,0,0,0,5.38,30.42l3.69,6.3a44.87,44.87,0,0,0,61.17,16.14l55.23-32.06A44.36,44.36,0,0,0,287.43,296.33ZM107.27,126.14a5.31,5.31,0,0,0-4.3-2.58l-3.81-.16a7.63,7.63,0,0,1-6.87-5.17L76.87,71.69a1.27,1.27,0,0,1,.56-1.49l9-5.19a1.24,1.24,0,0,1,1.59.28L117.34,100a1.25,1.25,0,0,1,0,1.56,17,17,0,0,0-2.78,5.82,17.22,17.22,0,0,0,1.82,13.19l66.07,113a1.24,1.24,0,0,1,.13,1,1.2,1.2,0,0,1-.58.76L175,239.43a1.32,1.32,0,0,1-.63.17,1.25,1.25,0,0,1-1.09-.63Zm99,220.35a34.38,34.38,0,0,1-46.9-12.37l-3.69-6.3a34.2,34.2,0,0,1-4.14-23.27l2-11A37.57,37.57,0,0,0,133,253.08,41.32,41.32,0,0,1,110,209.79l.83-5.61a2.67,2.67,0,0,1,3.31-2.16,2.62,2.62,0,0,1,1.63,1.26L125.54,220a24.06,24.06,0,0,0,29.27,10.3,1.26,1.26,0,0,1,1.54.54l11.13,19a5.25,5.25,0,0,0,7.14,1.88l18.31-10.65a5.21,5.21,0,0,0,1.89-7.16l-8-13.67a1.26,1.26,0,0,1,.35-1.66,23.9,23.9,0,0,0,6.55-31.38l-1.14-2a1.88,1.88,0,0,1-.2-1.48,1.85,1.85,0,0,1,.9-1.13,2,2,0,0,1,2.07.09l14.68,10a13.79,13.79,0,0,1,6,12.19,37.63,37.63,0,0,0,25.14,37.76l10.61,3.71a34.5,34.5,0,0,1,18.3,15.08l3.68,6.3a34.08,34.08,0,0,1-12.31,46.71Z"/>
    <path class="cls-2" d="M257.89,272.89a5.6,5.6,0,1,0,4,6.85A5.62,5.62,0,0,0,257.89,272.89Z"/>
    <path class="cls-2" d="M250.44,294.07a5.46,5.46,0,0,0-1.43-.19,5.61,5.61,0,0,0-1.43,11,5.64,5.64,0,0,0,6.87-4A5.63,5.63,0,0,0,250.44,294.07Z"/>
    <path class="cls-2" d="M203.88,253.42a4.52,4.52,0,0,0-3.22-5.53,4.29,4.29,0,0,0-1.17-.16,4.48,4.48,0,0,0-2.27.62L178.9,259h0a4.45,4.45,0,0,0-2.1,2.75,4.5,4.5,0,0,0,.46,3.44,4.45,4.45,0,0,0,2.75,2.1,4.5,4.5,0,0,0,3.44-.46l18.32-10.63A4.5,4.5,0,0,0,203.88,253.42Z"/>
    <path class="cls-2" d="M190.91,279.56l18.32-10.63h0a4.54,4.54,0,0,0-1.11-8.3,4.69,4.69,0,0,0-1.17-.15,4.57,4.57,0,0,0-2.27.61l-18.32,10.64a4.53,4.53,0,1,0,4.55,7.83Z"/>
    <path class="cls-2" d="M227,273.92a4.53,4.53,0,0,0-3.92-2.24,4.58,4.58,0,0,0-2.27.61l-32.63,18.95a4.66,4.66,0,0,0-1.64,6.21l8.08,13.81a4.53,4.53,0,0,0,6.18,1.63l32.64-18.95a4.54,4.54,0,0,0,1.63-6.21Zm-2.08,14.45a.18.18,0,0,1,0,.07l-24.62,14.29h-.05s-.08,0-.09-.05l-3.4-5.8a.12.12,0,0,1,0-.08.12.12,0,0,1,.05-.07l24.62-14.29a.1.1,0,0,1,.14,0l3.4,5.8A.22.22,0,0,1,224.92,288.37Z"/>
    <path class="cls-3" d="M238,193.06a4.78,4.78,0,0,0,2.85,6.13,4.69,4.69,0,0,0,1.64.29,4.79,4.79,0,0,0,4.49-3.13l19.33-52.82a4.77,4.77,0,0,0-5.07-6.39l-18.36,2.24-10.72,1.31,10.91-27.1,4.52-11.24a4.78,4.78,0,1,0-8.87-3.57l-18.45,45.85a4.78,4.78,0,0,0,5,6.53L242.8,149l11.84-1.45-12.06,33Z"/>
    <path class="cls-4" d="M76.78,245.57a4.51,4.51,0,0,0,.73-8.95l-11.36-1.87-31.9-5.27,7.67-9.14L53.2,206.92a4.51,4.51,0,0,0-2.87-7.37L5.09,193.63a4.5,4.5,0,0,0-1.17,8.93l10.38,1.36L41,207.42l-6.94,8.26L22.27,229.74A4.5,4.5,0,0,0,25,237.08L76,245.51A4.71,4.71,0,0,0,76.78,245.57Z"/>
    <path class="cls-3" d="M171.76,137.55,174,135q8.84-10.14,18.3-19.72,5.37-5.43,10.95-10.68a4.64,4.64,0,0,0,1.22-4.63c-5.58-13.88-10-28.66-18.95-40.83-1.48-2-4.2-3.2-6.52-1.71-2,1.28-3.29,4.37-1.7,6.52a88.65,88.65,0,0,1,10.06,18.25l.25.61.55,1.33c.33.82.66,1.65,1,2.47.66,1.67,1.3,3.35,1.94,5,1.07,2.78,2.12,5.57,3.21,8.34q-9.37,9-18.21,18.48-4.93,5.32-9.68,10.81c-1.69,1.95-3.7,3.93-4.38,6.5-.83,3.13.59,5.87,1.83,8.64l7,15.67c1,2.28,4.52,3,6.52,1.71,2.35-1.53,2.79-4.08,1.7-6.52q-2.88-6.43-5.75-12.88l-1.36-3c-.11-.26-.22-.51-.34-.76,0,0-.1-.24-.16-.38a1.71,1.71,0,0,0-.07-.18l0,0C171.52,137.82,171.64,137.69,171.76,137.55Zm-.72,1a.85.85,0,0,0,.1-.15C171.11,138.52,171.07,138.58,171,138.58Zm.26-.86c-.05-.22,0-.21,0,0Z"/>
    <path class="cls-4" d="M272,183.24a197.55,197.55,0,0,0,26.14-10.08c1.69-.79,2.94-3.58,2.19-5.37q-2.37-5.62-4.72-11.24c-.73-1.74-1.51-3.47-2.19-5.22a152.61,152.61,0,0,1,22.26-5.78c2.45-.45,4.07-3.56,3.32-5.86a4.88,4.88,0,0,0-5.85-3.32q-6.5,1.19-12.88,2.9-3.32.9-6.58,1.95a33.22,33.22,0,0,0-6.47,2.39,7.4,7.4,0,0,0-3.75,7c.19,2.37,1.31,4.5,2.22,6.66q2,4.68,3.92,9.36c-2.52,1.11-4.88,2.08-7.71,3.16-4.09,1.57-8.24,3-12.43,4.26a4.76,4.76,0,1,0,2.53,9.17Zm20.9-33.45a.84.84,0,0,1,0,.31C292.85,149.94,292.82,149.81,292.85,149.79Z"/>
    <path class="cls-3" d="M269.53,218.39l14.22,6.07c4.87,2.08,9.71,4.35,14.66,6.22,5.18,2,10.68,1.78,14.87-2.16a39.29,39.29,0,0,0,4.43-5.59q2.22-3,4.48-6.05c5.89-7.85,11.78-15.35,18.17-23.12a47.39,47.39,0,0,1,4.38-5l.51-.45.17-.1a6.48,6.48,0,0,0,.92-.55,11.22,11.22,0,0,1,1.48-.41l.55-.11a3.67,3.67,0,0,1,.38,0c5-.34,10.08-.11,15.1-.12l34.92-.05a4.76,4.76,0,0,0,0-9.52l-30.48,0-15.24,0a38.57,38.57,0,0,0-7.52.53,15.72,15.72,0,0,0-7.17,3.7,40.82,40.82,0,0,0-4.56,5.09q-2.3,2.81-4.58,5.62-4.85,6-9.56,12.15-4.52,5.85-8.9,11.8l-2.06,2.82-.87,1.18c-.18.21-.35.43-.54.64s-.65.65-1,1l-.46.27c.13-.09-.42.13-.71.21h-.23l-.8,0-.08,0c-.4-.09-.8-.18-1.2-.29-.56-.16-1.11-.35-1.66-.55l-.93-.36-.17-.07-.09,0-2-.87L290.33,217l-16-6.83c-2.29-1-5.21-.76-6.51,1.71C266.75,213.92,267.09,217.35,269.53,218.39Zm38.3,2a.76.76,0,0,1-.08.11C307.44,220.92,307.76,220.47,307.83,220.39Zm-2.57,2.1c.16,0,.27,0,0,0Z"/>
    <path class="cls-4" d="M299,280.72a42.4,42.4,0,0,1,7.09,3.36c1.25.72,2.46,1.49,3.65,2.31.52.36,1,.74,1.54,1.12l.23.17,1.23,1a52.54,52.54,0,0,1,6.09,6.12c2.08,2.46,4.48,4.86,7.83,5.31,4.24.57,7.11-2.11,10.19-4.57l8.41-6.77,3.89-3.12,1.94-1.56c.36-.29.73-.57,1.08-.87l.38-.3.19-.14.42-.26.32.2c.05.06.38.33.48.43a22.13,22.13,0,0,1,1.6,1.75c5.07,6,10,12.09,15.06,18.13,1.6,1.93,5.1,1.78,6.73,0a4.88,4.88,0,0,0,0-6.73l-13.66-16.45c-2.21-2.66-4.56-5.6-8.06-6.58-4.3-1.2-7.44,1-10.62,3.57-5.56,4.47-11.06,9-16.69,13.41l-.26.19-.19.13-.08-.05-.14-.15c-.54-.54-1.06-1.08-1.56-1.67a57.68,57.68,0,0,0-6.11-6.3,58.67,58.67,0,0,0-18.45-10.87,4.8,4.8,0,0,0-5.86,3.33A4.88,4.88,0,0,0,299,280.72Z"/>
    <path class="cls-5" d="M324.35,244.2l-19.79,2.51c-2.46.31-4.89,2-4.76,4.76.1,2.31,2.11,5.09,4.76,4.76l19.79-2.51c2.46-.31,4.89-2,4.76-4.76C329,246.65,327,243.87,324.35,244.2Z"/>
    <path class="cls-3" d="M86.07,272.58c-3.33,1-5,4.05-5.74,7.19a112.56,112.56,0,0,1-8.72,24,29.59,29.59,0,0,0-10.93-4.44c-2.45-.44-5.25.67-5.86,3.32-.53,2.33.71,5.38,3.33,5.86a26.39,26.39,0,0,1,3.48.86c.51.17,1,.35,1.52.55l.26.13,1,.49a27.26,27.26,0,0,1,3.06,1.88l.44.34.36.31c.51.44,1,.9,1.47,1.37a4.81,4.81,0,0,0,7.48-1A121.18,121.18,0,0,0,88.5,286.23c.31-1.14.61-2.29.89-3.43.08-.34.16-.68.25-1h.19a23.4,23.4,0,0,1,2.79.38,61.47,61.47,0,0,1,7,1.63c1.15.34,2.28.72,3.41,1.12l1.91.73.44.18.78.35c2.27,1,5.22.73,6.51-1.71,1.1-2.07.72-5.43-1.7-6.51a66.12,66.12,0,0,0-16.3-5.05C91.91,272.48,88.81,271.77,86.07,272.58Zm2.49,9.15.26,0C88.68,281.82,88.58,281.83,88.56,281.73Z"/>
    <path class="cls-3" d="M99.77,189.58q-1.41-5-2.83-10a11.79,11.79,0,0,0-2.59-5.42,7.37,7.37,0,0,0-5.81-2.08c-3.48.33-6.91,1.93-10.2,3L71,177.6c-.46-.6-.91-1.2-1.51-2-1.2-1.63-2.34-3.3-3.45-5A117.63,117.63,0,0,1,60,160.08a4.78,4.78,0,0,0-6.51-1.71,4.87,4.87,0,0,0-1.71,6.51A121.54,121.54,0,0,0,66,186.53a4.62,4.62,0,0,0,4.63,1.22c5.68-1.93,11.36-3.88,17-5.79l0,0c.13.49.27,1,.41,1.46.82,2.91,1.63,5.81,2.45,8.71a4.76,4.76,0,1,0,9.18-2.53Z"/>
    <path class="cls-5" d="M31.48,121.82a29.26,29.26,0,0,1,4.27-2.74l1-.51.54-.24c.73-.28,1.46-.53,2.2-.76s1.49-.41,2.24-.57l1.14-.22.3-.06.26,0a30.78,30.78,0,0,1,5.08-.06,4.78,4.78,0,0,0,4.76-4.76,4.86,4.86,0,0,0-4.76-4.75,32.49,32.49,0,0,0-21.88,6.48c-2,1.51-3.22,4.16-1.7,6.51C26.22,122.06,29.37,123.45,31.48,121.82Z"/>
    <path class="cls-3" d="M21.17,91.34l21.92-1.72c2.48-.19,4.88-2.05,4.76-4.76-.11-2.41-2.1-5-4.76-4.75L21.17,81.82c-2.48.2-4.88,2.05-4.76,4.76C16.52,89,18.51,91.55,21.17,91.34Z"/>
    <path class="cls-5" d="M17.63,41.76,44.07,54.53c2.24,1.08,5.25.68,6.52-1.71,1.12-2.13.68-5.36-1.71-6.51L22.44,33.54c-2.24-1.08-5.25-.69-6.51,1.71C14.8,37.38,15.24,40.6,17.63,41.76Z"/>
    <path class="cls-3" d="M74,42.11a4.76,4.76,0,1,0,8.22-4.8A128.29,128.29,0,0,0,55.35,6.62c-1.92-1.58-4.88-2-6.73,0-1.61,1.75-2.06,5,0,6.73A126.08,126.08,0,0,1,62.73,27,109.62,109.62,0,0,1,74,42.11Z"/>
    <path class="cls-5" d="M115.51.12c-2.33-.53-5.38.71-5.86,3.32a216.6,216.6,0,0,0-3.5,41.76,4.76,4.76,0,0,0,9.52,0A203.61,203.61,0,0,1,118.83,6C119.27,3.53,118.17.73,115.51.12Z"/>
    <path class="cls-3" d="M129.46,80.46a4.88,4.88,0,0,0,5.85-3.32l14.52-40.39a4.78,4.78,0,0,0-3.32-5.85,4.87,4.87,0,0,0-5.85,3.32L126.14,74.61A4.78,4.78,0,0,0,129.46,80.46Z"/>
    <path class="cls-4" d="M147.21,98a66.5,66.5,0,0,0,17.54-6,4.78,4.78,0,0,0,1.71-6.51A4.88,4.88,0,0,0,160,83.75c-.61.31-1.22.61-1.84.89l-.93.42-.41.18c-1.29.53-2.61,1-3.93,1.45a60.61,60.61,0,0,1-8.16,2.08c-2.45.46-4.07,3.56-3.32,5.86A4.88,4.88,0,0,0,147.21,98Z"/>
    <path class="cls-5" d="M44.19,365.74A4.89,4.89,0,0,0,50.7,364l8.56-12,2-2.84.16-.23.18-.19a4.08,4.08,0,0,0,.46-.47l0,0,0,0,.15-.07.53-.14.57,0c1.19,0,2.39,0,3.59,0l29.54.1,16.73.06c2.4,0,5-2.19,4.76-4.76a219.61,219.61,0,0,1-.72-30.13,4.8,4.8,0,0,0-4.76-4.76,4.86,4.86,0,0,0-4.76,4.76,218.76,218.76,0,0,0,.33,25.35l-26.07-.09-15.61-.05c-2.44,0-5.05-.15-7.36.77-2.82,1.1-4.54,3.09-6.27,5.49-3.46,4.81-6.89,9.64-10.34,14.46C41,361.26,42.06,364.61,44.19,365.74Zm18.55-17.68c-.19,0-.42,0,0,0Z"/>
    <path class="cls-3" d="M151,361.41a4.84,4.84,0,0,0-6.51,1.71,71.68,71.68,0,0,1-4.39,7c-.39.55-.79,1.09-1.19,1.62l-.1.13-.08.1-.62.78c-.9,1.11-1.84,2.18-2.79,3.23-1.68,1.84-2,4.94,0,6.73a4.81,4.81,0,0,0,6.72,0,77.38,77.38,0,0,0,10.67-14.81A4.83,4.83,0,0,0,151,361.41Z"/>
    <path class="cls-4" d="M176.7,395l.6-19.32a4.79,4.79,0,0,0-4.76-4.76,4.84,4.84,0,0,0-4.76,4.76q-.56,17.94-1.12,35.88c-.09,3-.11,6.16,1.55,8.82,1.77,2.83,4.73,4,7.7,5.2q8.15,3.21,16.43,6.07,7.18,2.47,14.45,4.67l-13.68,49.78a4.76,4.76,0,0,0,9.17,2.53q7.47-27.14,14.92-54.28a4.84,4.84,0,0,0-3.32-5.85q-15.8-4.59-31.17-10.44l-3.77-1.46-1.41-.56-.32-.15-.82-.47s0,0-.1-.09l0-.1c0-.15-.07-.3-.1-.44a9.7,9.7,0,0,0,0-1c0-.74,0-1.47.05-2.21Zm-.48,20.28c-.3-.21-.12-.12,0,0Z"/>
    <path class="cls-3" d="M257.69,407.66A4.83,4.83,0,0,0,261,401.8l-7.88-24.89c-.88-2.81-4.3-4.57-7-2.84l-14.62,9.39q-3-3.12-5.72-6.48c-1.38-1.68-1.88-2.35-3.21-4.18s-2.47-3.55-3.63-5.37a4.76,4.76,0,0,0-8.22,4.8,117.75,117.75,0,0,0,16.74,20.69,4.85,4.85,0,0,0,5.77.74l12.64-8.12,5.94,18.79A4.85,4.85,0,0,0,257.69,407.66Z"/>
    <path class="cls-4" d="M291.86,370.66c.65.19,1.3.41,1.94.64.12.05.95.38.93.36.31.14.61.28.91.44a6.21,6.21,0,0,0,.66.41l.15.14a1.23,1.23,0,0,0,.13.23c.06.2.12.4.17.6s.15.9.16.84l.12,1.2a75.3,75.3,0,0,0,7.78,26.59,4.8,4.8,0,0,0,6.51,1.71A4.89,4.89,0,0,0,313,397.3c-.53-1-1-2.1-1.52-3.17s-.58-1.31-1.05-2.57a68.12,68.12,0,0,1-3.6-13.57c-.05-.3-.09-.6-.14-.9,0-.08,0-.19,0-.32-.05-.5-.11-1-.16-1.5a35.58,35.58,0,0,0-.55-4.11c-1.23-5.65-6.29-8-11.33-9.61a40.58,40.58,0,0,0-10.4-1.75q0-13.94,0-27.88a4.76,4.76,0,0,0-9.52,0q0,16.38.05,32.75c0,2.42,2.18,5,4.76,4.76a37.64,37.64,0,0,1,6.63,0l.76.08.51.08c.5.1,1,.18,1.5.29C289.89,370.11,290.88,370.36,291.86,370.66Z"/>
    <path class="cls-3" d="M312.66,341.47c1.89,3.21,5.09,6,9.11,5,3-.77,5-3.26,7.14-5.37,1.86-1.87,3.74-3.73,5.75-5.44.45-.38.9-.74,1.35-1.11-.64.52.53-.38.76-.55a32.15,32.15,0,0,1,3.26-2c.31-.17.62-.32.94-.48l.37-.17.43-.17,1-.35c.54-.17,1.09-.31,1.64-.44l.84-.17.15,0,.49,0,.29,0,.22,0c.18.17.36.34.52.52l.32.36s.35.45.43.56l1.47,2q6.51,8.85,13,17.71c1.47,2,4.19,3.2,6.51,1.71,2-1.28,3.28-4.37,1.7-6.51L359,331c-1.86-2.53-3.59-5.53-5.93-7.64-3-2.68-6.55-3-10.33-2.31-5.47,1-10.26,4.12-14.44,7.63-2,1.69-3.92,3.54-5.78,5.41l-2,2c-.33-.58-.66-1.16-1-1.74l-2.73-4.74-5.46-9.47a4.76,4.76,0,1,0-8.21,4.8C306.29,330.42,309.42,336,312.66,341.47Zm33.83-11.33c.19.08.13.14-.08,0Zm-27.32,7.24c-.18.18-.12.1,0,0Z"/>
    <path class="cls-5" d="M225.75,53a21.3,21.3,0,0,1,2.75,1.47l.05.05c.19.21.79,1.07.16.09.13.2.26.38.37.58s.11.21.16.31a5,5,0,0,0,.27,1.08c0,.12.11,1.06.11,1.35s0,.73-.06,1.1c-.14.71-.29,1.41-.5,2.11-.07.24-.65,1.64-.44,1.25-.26.54-.53,1.07-.82,1.59-.81,1.45-1.71,2.85-2.59,4.25A34.45,34.45,0,0,0,221,77c-.63,2.24-.92,4.86.28,7A5.62,5.62,0,0,0,232,81.18a5.09,5.09,0,0,0-1.24-3.33l.05-.13c.2-.4.39-.8.6-1.19,1.15-2.2,2.56-4.25,3.84-6.38,2.52-4.19,4.41-9.07,3.81-14.05a13.82,13.82,0,0,0-3.16-7.67,15.32,15.32,0,0,0-5.32-3.65c-.81-.38-1.64-.74-2.42-1.18h0c.64-1.06,1.28-2.11,1.93-3.15q5.34-8.57,11.24-16.76c1.46-2,.42-5.39-1.71-6.51a4.88,4.88,0,0,0-6.51,1.71q-6.42,9-12.22,18.34a16.94,16.94,0,0,0-2.47,5.05,8.31,8.31,0,0,0,.85,5.78C220.59,50.55,223.28,51.85,225.75,53ZM230,80.41c0,.19,0,.18,0,.08ZM227.18,43l-.11-.06S227.12,43,227.18,43Z"/>
  </g>
</svg>
