<svg id="Layer_1" data-name="Layer 1" xmlns="http://www.w3.org/2000/svg" viewBox="0 0 322.75 903.46">
  <defs>
    <style>
      .cls-1 {
        opacity: 0.23;
      }

      .cls-2 {
        fill: #4d7ab0;
      }

      .cls-3 {
        fill: #34557d;
      }

      .cls-4 {
        fill: #284364;
      }

      .cls-5 {
        fill: none;
        stroke: #284364;
        stroke-linecap: round;
        stroke-linejoin: round;
        stroke-width: 12px;
      }
    </style>
  </defs>
  <g class="cls-1">
    <path class="cls-2" d="M169.09,107.42a26.82,26.82,0,1,0,3.67,31.15A26.85,26.85,0,0,0,169.09,107.42Zm-7.37,6.76a16.84,16.84,0,1,1-23.78-1.05A16.85,16.85,0,0,1,161.72,114.18Z"/>
    <path class="cls-2" d="M190.73,131.85a5,5,0,0,0-9,2.09c-.15.82-4,20.63-27.39,24.73a5,5,0,0,0-2.43,8.69l63.3,55.29a5,5,0,0,0,3,1.23c10.25.53,16.48-7,19.76-13a37.14,37.14,0,0,0,2.95-6.76,5,5,0,0,0-.74-4.39Zm7.72,35c.63-.93,1.19-1.85,1.68-2.74.26-.46.5-.92.72-1.36l29.71,40.76c-1.46,3.39-4.83,9.57-10.22,10.34l-38.62-33.73A35.32,35.32,0,0,0,198.45,166.82Zm-10.27-21.49,5.65,7.75a25.59,25.59,0,0,1-11.23,15.44,28.89,28.89,0,0,1-9.82,3.76l-7.27-6.35a41.94,41.94,0,0,0,19.84-15.74A43.54,43.54,0,0,0,188.18,145.33Z"/>
    <path class="cls-3" d="M35.05,51.93c2.31-2.16,5.08-1.86,7.45-.08C62.26,66.77,84,81.52,105.6,94.78c2.34,1.43,3.58,4.65,2.05,7.15-1.44,2.34-4.64,3.59-7.15,2Q66.73,83.29,35.13,59.37C32.92,57.7,33.16,53.69,35.05,51.93Z"/>
    <path class="cls-4" d="M7,120.44a498,498,0,0,0,71,7.33q10.29.33,20.59.25a5.26,5.26,0,0,1,.24,10.52,526.31,526.31,0,0,1-73.68-4.68q-10.35-1.38-20.64-3.19a5.3,5.3,0,0,1-3.88-6.35A5.39,5.39,0,0,1,7,120.44Z"/>
    <path class="cls-3" d="M35.79,241.38c-1.52,2.28-4.59,3.62-7.15,2.05-2.27-1.39-3.68-4.7-2.05-7.15,16.88-25.36,41.62-43.27,64-63.4a246.62,246.62,0,0,0,17.91-17.66,5.31,5.31,0,0,1,7.44-.07,5.37,5.37,0,0,1,.08,7.44c-19.88,21.95-44.74,38.59-65.06,60.08A141.16,141.16,0,0,0,35.79,241.38Z"/>
    <path class="cls-4" d="M125.88,257.2c-2.65-.06-5.55-2.21-5.38-5.14a479.77,479.77,0,0,1,8.21-64,5.3,5.3,0,0,1,6.35-3.88,5.38,5.38,0,0,1,3.88,6.35A453.88,453.88,0,0,0,131,251.82C130.86,254.56,128.89,257.26,125.88,257.2Z"/>
    <path class="cls-3" d="M160.93,201.4a5.36,5.36,0,0,1,6.51,3.61l9.23,33.85a5.26,5.26,0,1,1-10.11,2.9l-9.24-33.85A5.33,5.33,0,0,1,160.93,201.4Z"/>
    <path class="cls-3" d="M146.63,53.6,152.3,4c.31-2.75,3.85-4.61,6.35-3.88,3,.87,4.21,3.41,3.88,6.35l-5.67,49.56c-.32,2.75-3.86,4.61-6.35,3.88C147.48,59.08,146.29,56.54,146.63,53.6Z"/>
    <path class="cls-4" d="M207.5,47c2.11,2.26,1.9,5.12.07,7.44Q194.69,70.8,181.81,87.11c-1.71,2.17-5.64,2-7.44.08-2.12-2.26-1.91-5.12-.08-7.44l25.76-32.64C201.76,45,205.7,45.12,207.5,47Z"/>
    <path class="cls-3" d="M318,90.11a5.4,5.4,0,0,1-5.14,5.38q-42.63,4.45-85.42,7.1-12.17.75-24.33,1.35a5.26,5.26,0,0,1-.24-10.52q42.81-2.13,85.5-6.06,12.14-1.12,24.25-2.39C315.38,84.68,318.07,87.42,318,90.11Z"/>
    <path class="cls-4" d="M262.54,144.1a5.35,5.35,0,0,1-6.35,3.88l-14.45-3.9c-2.65-.72-4.69-3.57-3.88-6.35a5.35,5.35,0,0,1,6.35-3.88l14.45,3.9C261.31,138.47,263.35,141.32,262.54,144.1Z"/>
    <path class="cls-4" d="M127.64,79.28a5.36,5.36,0,0,1-7.18-2L105.79,49.72a5.26,5.26,0,0,1,9.15-5.2c2.35,4.41,12.32,23.19,14.67,27.59A5.33,5.33,0,0,1,127.64,79.28Z"/>
    <path class="cls-5" d="M249.73,231.46c159,153,8,364-171,317-63.91-16.78-95.48-90.32-54-123,33-26,121.33-15,103,183-10,108-85,271,87,289"/>
  </g>
</svg>
