<svg id="Layer_1" data-name="Layer 1" xmlns="http://www.w3.org/2000/svg" viewBox="0 0 150 101.83">
  <defs>
    <style>
      .cls-1 {
        fill: none;
        stroke: #48ada8;
        stroke-miterlimit: 10;
        stroke-width: 0.36px;
      }

      .cls-2 {
        fill: #d4de24;
      }
    </style>
  </defs>
  <g>
    <path class="cls-1" d="M66.17,101.65a32.73,32.73,0,0,1-8.6-1.07c-.37.07-.73.13-1.1.18a23,23,0,0,1-2.87.19H49.23a23.12,23.12,0,0,1-2.46-.14,23.08,23.08,0,0,1-2.45.14H39.48A22,22,0,0,1,33.2,100a20.73,20.73,0,0,1-3.43.74l-.17,0a23.4,23.4,0,0,1-2.69.17H22.46a22.4,22.4,0,0,1-2.67-.17l-.16,0a21.39,21.39,0,0,1-16-10.83A21.48,21.48,0,0,1,1,79.39c0-.57,0-1.1.05-1.61l.15-22.42c0-.5,0-1,.05-1.52A22.39,22.39,0,0,1,.69,42.32C.77,42,.88,41.48,1,41c0-.1.06-.24.09-.39s0-.11,0-.17c.15-.78.32-1.53.54-2.28l.43-1.73c.08-.3.16-.6.23-.9.16-.72.34-1.44.52-2.13L3,33l.09-.28c.13-.71.26-1.42.4-2.13l.1-.53c0-.26.11-.56.16-.86,0-.12,0-.25.08-.39l3.42-14.1,1-2.05A22.23,22.23,0,0,1,23.29.82,26.19,26.19,0,0,1,29.23.18h2.08a22.82,22.82,0,0,1,5.31.61A22.84,22.84,0,0,1,41.94.18H45a24.4,24.4,0,0,1,3.65.24A23.28,23.28,0,0,1,52,.18h4.33A22,22,0,0,1,59,.34,21.13,21.13,0,0,1,61.64.18h4.64a22.89,22.89,0,0,1,2.83.18,24.37,24.37,0,0,1,3-.18h3.06a25.49,25.49,0,0,1,4.15.31c.61.11,1.21.24,1.81.39C81.67.73,82.27.6,82.86.5A25.19,25.19,0,0,1,87.05.18h3.07a23,23,0,0,1,5.72.71l.29-.07a26.26,26.26,0,0,1,5.94-.64h2.09a22.65,22.65,0,0,1,5.29.61,22,22,0,0,1,2.29-.42A21.35,21.35,0,0,1,114.6.18H119a21.48,21.48,0,0,1,12,3.65,21.22,21.22,0,0,1,6.87,7.55,21.57,21.57,0,0,1,2.61,9.92l.13,4.48A21.44,21.44,0,0,1,145.9,32a21.9,21.9,0,0,1,2.74,9l.08.89v.62c0,.27,0,1.06.05,1.44,0,.67,0,1.29,0,1.92v.65a22,22,0,0,1-1.4,8.22v1.75a21.93,21.93,0,0,1-.13,2.42,20.31,20.31,0,0,1-.39,2.46A29.93,29.93,0,0,1,149,67.26a27.11,27.11,0,0,1,.61,9.62,25.74,25.74,0,0,1-4.23,11.42A28.19,28.19,0,0,1,139.29,95a27.43,27.43,0,0,1-7.43,4.16,29,29,0,0,1-6.65,1.6,37.73,37.73,0,0,1-4.35.26,27.27,27.27,0,0,1-4.71-.44,23.63,23.63,0,0,1-4.55.44c-1.42,0-2.75,0-3.93-.08a27.17,27.17,0,0,1-2.86-.3c-.32.06-.63.1-1,.14l-.13,0A21.87,21.87,0,0,1,101,101h-4a22,22,0,0,1-2.27-.12,24.07,24.07,0,0,1-3.06.2c-.66,0-1.34,0-2-.08h-.86a24.46,24.46,0,0,1-3.2-.22,24.33,24.33,0,0,1-3.1.21H77.87a22,22,0,0,1-4.07-.38A27.32,27.32,0,0,1,66.17,101.65Z"/>
    <path class="cls-1" d="M66.17,96.52a27,27,0,0,1-8.41-1.23,16,16,0,0,1-1.95.38,18,18,0,0,1-2.21.15H49.23a17.4,17.4,0,0,1-2.12-.14l-.33,0-.34,0a17.8,17.8,0,0,1-2.12.14H39.48a17.27,17.27,0,0,1-2.12-.14,16.15,16.15,0,0,1-4.16-1.1,16,16,0,0,1-4.08,1.09l-.16,0a16.36,16.36,0,0,1-2.05.13H22.46a18.52,18.52,0,0,1-2.06-.13l-.13,0a16,16,0,0,1-6.81-2.52A16.36,16.36,0,0,1,6.09,79.39c0-.52,0-1,0-1.44L6.29,55.4a20,20,0,0,1,.13-2.21,16.93,16.93,0,0,1-.71-9.81c.07-.32.16-.72.27-1.17,0-.14.08-.32.12-.5s.05-.23.07-.35c.13-.65.28-1.28.46-1.89l.44-1.77c.09-.35.18-.7.26-1.06.16-.67.32-1.33.49-2l.08-.31L8,34.07a2,2,0,0,0,.09-.37c.14-.73.28-1.47.42-2.19L8.6,31c.05-.27.1-.56.16-.85,0-.12.05-.25.07-.38l3.23-13.3.78-1.54a17,17,0,0,1,11.6-9.09,20.7,20.7,0,0,1,4.79-.51h2.08a17.6,17.6,0,0,1,5.31.8,17.61,17.61,0,0,1,5.32-.8H45a20.91,20.91,0,0,1,3.31.24l.34.07A17.69,17.69,0,0,1,52,5.31h4.33a18.42,18.42,0,0,1,2.69.2l.4,0a16.86,16.86,0,0,1,2.21-.15h4.64a17,17,0,0,1,2.21.15c.21,0,.41,0,.62.09a18,18,0,0,1,3-.24h3.06a20.91,20.91,0,0,1,3.31.24,16.91,16.91,0,0,1,2.65.69,15.76,15.76,0,0,1,2.62-.68,19.31,19.31,0,0,1,3.34-.25h3.07a17.52,17.52,0,0,1,5.68.92,14.7,14.7,0,0,1,1.48-.41,20.76,20.76,0,0,1,4.79-.51h2.09a17.64,17.64,0,0,1,5.31.8,15.23,15.23,0,0,1,2.92-.65,16.75,16.75,0,0,1,2.21-.15H119a17.3,17.3,0,0,1,2.11.13,16.31,16.31,0,0,1,12.27,8.39,16.45,16.45,0,0,1,2,7.6l.21,7.09a16.15,16.15,0,0,1,5.9,6,17,17,0,0,1,2.1,6.91l.05.67v.49s0,1.05.06,1.51,0,1.18,0,1.76v.69a16.9,16.9,0,0,1-1.55,7.5l.15.63v1.8a17.54,17.54,0,0,1-.1,1.9A16.18,16.18,0,0,1,141.4,62a2.53,2.53,0,0,0,.13.22,24.78,24.78,0,0,1,2.52,6.3,22.15,22.15,0,0,1,.5,7.82,20.68,20.68,0,0,1-3.41,9.16,23.32,23.32,0,0,1-5,5.47,22.45,22.45,0,0,1-6,3.39,24.31,24.31,0,0,1-5.48,1.31,31.84,31.84,0,0,1-3.75.23,22.43,22.43,0,0,1-4.22-.44l-.57-.11a18.3,18.3,0,0,1-4.47.55c-1.35,0-2.59,0-3.7-.08a20.29,20.29,0,0,1-3.13-.39c-.52.12-1,.21-1.57.28h-.1a17.4,17.4,0,0,1-2.12.14h-4a17.4,17.4,0,0,1-2.12-.14l-.23,0a17.29,17.29,0,0,1-3,.25c-.59,0-1.19,0-1.8-.08H88.72a18.73,18.73,0,0,1-3.19-.28,20.14,20.14,0,0,1-3.14.28H77.87a17.15,17.15,0,0,1-4.31-.55A22.45,22.45,0,0,1,66.17,96.52Z"/>
    <path class="cls-1" d="M66.17,91.4A21,21,0,0,1,58,89.94l-.17-.07a11,11,0,0,1-2.72.71,11.16,11.16,0,0,1-1.55.11H49.23a11.29,11.29,0,0,1-1.49-.1c-.32,0-.64-.1-1-.16s-.6.11-.9.15H45.8a11,11,0,0,1-1.48.1H39.48a11.42,11.42,0,0,1-6.26-1.88l0,0-.12.08a10.94,10.94,0,0,1-4.62,1.71l-.1,0a12.66,12.66,0,0,1-1.45.09H22.46A12.39,12.39,0,0,1,21,90.6l-.1,0a11,11,0,0,1-4.64-1.72,11.26,11.26,0,0,1-5-9.47c0-.46,0-.86,0-1.24l.16-22.74a12.84,12.84,0,0,1,.33-2.93,11.56,11.56,0,0,1-1-8c0-.24.12-.57.23-1l.14-.6c0-.17.08-.34.11-.51a13,13,0,0,1,.37-1.52L12,39c.11-.4.21-.81.3-1.22.14-.61.3-1.22.45-1.81l.05-.21.06-.19a7.33,7.33,0,0,0,.24-.95c.13-.72.27-1.44.4-2.15l.11-.54.15-.82c0-.12.05-.25.08-.37l3-12.52.51-1a12,12,0,0,1,8.17-6.38,15.77,15.77,0,0,1,3.64-.38h2.08a12,12,0,0,1,5.31,1.19,11.87,11.87,0,0,1,5.32-1.19H45a15.2,15.2,0,0,1,2.47.17,11.67,11.67,0,0,1,1.17.27A12.68,12.68,0,0,1,52,10.44h4.33a12.62,12.62,0,0,1,2.7.29c.35-.08.7-.14,1.05-.19a12,12,0,0,1,1.55-.1h4.64a12,12,0,0,1,1.55.1,12.75,12.75,0,0,1,1.26.24,12.6,12.6,0,0,1,3-.34h3.06a15,15,0,0,1,2.47.17,10.64,10.64,0,0,1,3.49,1.25,10.59,10.59,0,0,1,3.47-1.24,14.48,14.48,0,0,1,2.49-.18h3.07a11.87,11.87,0,0,1,5.6,1.33,13,13,0,0,1,2.71-.95,15.83,15.83,0,0,1,3.64-.38h2.09a12.13,12.13,0,0,1,5.34,1.2,10.71,10.71,0,0,1,3.55-1.1,12,12,0,0,1,1.55-.1H119a13.2,13.2,0,0,1,1.49.09,11.14,11.14,0,0,1,8.39,5.76,11.33,11.33,0,0,1,1.36,5.26l.23,7.62,0,.25v1.19l.06,1.3a11.18,11.18,0,0,1,2.18.91A10.91,10.91,0,0,1,137,37a11.91,11.91,0,0,1,1.46,4.83l0,.45v.35c0,.08,0,.19,0,.34,0,.39,0,.8,0,1.24s0,1.07,0,1.6v.74a11.48,11.48,0,0,1-1.87,6.71l.47,2v1.2a13.2,13.2,0,0,1-.07,1.39,11.3,11.3,0,0,1-1.34,4.3,2.53,2.53,0,0,0-.13.22,27.35,27.35,0,0,1,1.46,2.33,19.55,19.55,0,0,1,2,5,17.15,17.15,0,0,1,.38,6,15.6,15.6,0,0,1-2.58,6.91,18.24,18.24,0,0,1-3.9,4.27,17.48,17.48,0,0,1-4.65,2.62,19.06,19.06,0,0,1-4.31,1,28.16,28.16,0,0,1-3.15.19,17.36,17.36,0,0,1-3.26-.35L115.86,90a12.65,12.65,0,0,1-4.26.71c-1.27,0-2.44,0-3.48-.07a14,14,0,0,1-3.43-.58,10.35,10.35,0,0,1-2.15.5h-.07a11.18,11.18,0,0,1-1.49.1h-4a11.29,11.29,0,0,1-1.49-.1c-.31,0-.62-.09-.93-.16a12.2,12.2,0,0,1-2.91.34c-.5,0-1,0-1.53-.08H88.72a12.74,12.74,0,0,1-3.17-.39,13.81,13.81,0,0,1-3.2.39H77.86a11.45,11.45,0,0,1-4.46-.88l-.34.15A17.3,17.3,0,0,1,66.17,91.4Z"/>
    <path class="cls-1" d="M134.09,70.93a14.36,14.36,0,0,0-1.49-3.69,24.69,24.69,0,0,0-1.88-2.86c-.6-.8-1.24-1.58-1.89-2.33a2.5,2.5,0,0,0,.35-.21,5.92,5.92,0,0,0,2.06-2.16,6.21,6.21,0,0,0,.73-2.34,8.57,8.57,0,0,0,0-.87v-.6l-.91-3.82,0-.1,0-.09a5.94,5.94,0,0,0,2.36-5.2v-.81c0-.47,0-1,0-1.44s0-.83,0-1.2,0-.39,0-.47v-.2l0-.22a6.76,6.76,0,0,0-.81-2.75,5.89,5.89,0,0,0-2.25-2.26,5.8,5.8,0,0,0-2.76-.7h-1.89l-.26-5.88v-.8l0-.19v-.13l-.23-7.94a6.34,6.34,0,0,0-.75-2.93,6,6,0,0,0-4.51-3.12,6.67,6.67,0,0,0-.86,0H114.6a7.41,7.41,0,0,0-.9.06,5.87,5.87,0,0,0-2.58,1,6.06,6.06,0,0,0-1.61,1.66c-.05-.06-.08-.13-.13-.2a6.06,6.06,0,0,0-5.22-2.52h-2.09a11.46,11.46,0,0,0-2.48.24,7.15,7.15,0,0,0-2.86,1.35,6.7,6.7,0,0,0-1.17,1.21A6.19,6.19,0,0,0,94.36,17a6.36,6.36,0,0,0-4.24-1.43H87.05a9.4,9.4,0,0,0-1.63.11A5.68,5.68,0,0,0,81.21,19a2.6,2.6,0,0,0-.12.24c0-.1-.11-.24-.11-.24a5.74,5.74,0,0,0-4.22-3.28,10.49,10.49,0,0,0-1.63-.1H72.07a6.94,6.94,0,0,0-3,.64,5.65,5.65,0,0,0-1.87-.58,7.41,7.41,0,0,0-.9-.06H61.64a7.25,7.25,0,0,0-.89.06,5.56,5.56,0,0,0-1.69.49,6.54,6.54,0,0,0-2.72-.55H52a6.46,6.46,0,0,0-3.38.86,5.51,5.51,0,0,0-2-.76,10.58,10.58,0,0,0-1.63-.1H41.94A6.36,6.36,0,0,0,37.7,17a6.49,6.49,0,0,0-1.09,1.21.83.83,0,0,0-.08-.12,6,6,0,0,0-5.22-2.52H29.23a11.56,11.56,0,0,0-2.49.24,7.15,7.15,0,0,0-2.86,1.35A6.83,6.83,0,0,0,22,19.5l-.26.51L19.16,30.53c-.12.52-.23,1-.33,1.57s-.18.91-.26,1.35h0c-.14.7-.27,1.4-.4,2.12-.1.51-.22,1-.37,1.52l0,.09,0,.1c-.14.54-.28,1.1-.41,1.67s-.22.92-.34,1.36l-.47,1.9a7.38,7.38,0,0,0-.27,1.1c-.05.22-.09.45-.15.67s-.11.5-.17.72-.14.6-.18.79a5.93,5.93,0,0,0,1.76,6.08l.07,0a7.17,7.17,0,0,0-1,3.83l-.16,22.92c0,.3,0,.63,0,1a6.17,6.17,0,0,0,.77,3,6,6,0,0,0,4.45,3.06h.05a6.5,6.5,0,0,0,.84.06h4.45a6.5,6.5,0,0,0,.84-.06h.05a6.05,6.05,0,0,0,4.46-3.06,6.27,6.27,0,0,0,.76-3c0-.38,0-.82,0-1.32,0-.16,0-.32,0-.48s.22-.08.33-.12c0,.32,0,.64,0,1s0,.59,0,1a6.32,6.32,0,0,0,.74,3,6.17,6.17,0,0,0,2,2.14,5.91,5.91,0,0,0,2.56,1,6.79,6.79,0,0,0,.86.06h4.84a6.92,6.92,0,0,0,.86-.06h0a5.74,5.74,0,0,0,1.57-.44,5.68,5.68,0,0,0,1.59.44,6.92,6.92,0,0,0,.86.06H53.6a7.65,7.65,0,0,0,.89-.06,5.9,5.9,0,0,0,2.52-1,5.63,5.63,0,0,0,.72-.57A11.38,11.38,0,0,0,60,85.19a16,16,0,0,0,6.18,1.08,12.31,12.31,0,0,0,7.34-2.47,5.84,5.84,0,0,0,4.35,1.76h4.45a7.37,7.37,0,0,0,3.24-.69,7.3,7.3,0,0,0,3.17.69h1.72a9.36,9.36,0,0,0,1.16.07,6.83,6.83,0,0,0,2.86-.59,5.83,5.83,0,0,0,1.61.45,6.92,6.92,0,0,0,.86.06h4a6.79,6.79,0,0,0,.86-.06h0a6,6,0,0,0,2.52-1l.11-.08a8.56,8.56,0,0,0,3.84,1.07c1,0,2.05.07,3.25.07a7.11,7.11,0,0,0,3.75-1l1.33.33c.64.15,1.27.29,1.88.41a12.24,12.24,0,0,0,2.3.25,20.18,20.18,0,0,0,2.55-.16,13.3,13.3,0,0,0,3.14-.75,12.16,12.16,0,0,0,3.26-1.83,13.33,13.33,0,0,0,2.8-3.09,10.57,10.57,0,0,0,1.75-4.64A11.9,11.9,0,0,0,134.09,70.93Z"/>
    <g>
      <path class="cls-2" d="M38.54,44l-.1-.39a.1.1,0,0,0,0,0l0,.11Z"/>
      <path class="cls-2" d="M38.71,46.83A1.69,1.69,0,0,0,39,45.59c-.08-.39-.16-.74-.24-1.06a5,5,0,0,0-.15-.57V44h0l0-.07-.1-.33,0-.11a.25.25,0,0,1,0-.11,0,0,0,0,0,0,0l-.23-.85A3.08,3.08,0,0,1,38,42c0-.19-.08-.31-.1-.39l-.43-1.9-.35-1.44-.55-1.9s-.55-3.34-.73-4-.37-1.41-.55-2.13v0q-.07-.32-.15-.72a5.26,5.26,0,0,0-.2-.72L34.44,27l-.12-.66L33.5,23a6,6,0,0,0-.17-.71c-.09-.33-.17-.61-.22-.84a2,2,0,0,0-.29-.62c-.14-.21-.47-.31-1-.31H29.77a6,6,0,0,0-1.33.12,1.93,1.93,0,0,0-.79.35,1.71,1.71,0,0,0-.49.62l-2.41,9.8c-.11.45-.2.9-.29,1.37s-.18.92-.26,1.36v0c-.13.67-.26,1.36-.39,2.06a20,20,0,0,1-.5,2.06c-.13.5-.26,1-.37,1.5s-.24,1-.37,1.5l-.51,2a3.57,3.57,0,0,0-.15.61c-.06.27-.11.55-.18.83s-.13.56-.19.82-.11.45-.14.58c-.13.6-.1,1,.08,1.13a1.41,1.41,0,0,0,.93.23h4.44a1.69,1.69,0,0,0,.78-.15.84.84,0,0,0,.37-.38,1.29,1.29,0,0,0,.09-.46,2,2,0,0,1,0-.39,2.55,2.55,0,0,0,.08-.36c0-.17.05-.34.08-.52s0-.35.06-.5,0-.27,0-.35q.07-.66.21-1.32c.09-.43.2-.87.33-1.31l.27-1h.41a1.84,1.84,0,0,0,.41,0,4,4,0,0,0,.58,0q.32,0,.63,0l0,.23.35,1.74.63,3.56a2.79,2.79,0,0,0,.27.91q.19.36,1.17.36h3.77A1.36,1.36,0,0,0,38.71,46.83ZM30,36l-.51,0c-.16,0-.21,0-.16-.1a4.24,4.24,0,0,0,.1-.81c0-.5.24-1.52.29-2.12l.38-2.63L30.89,36Z"/>
      <path class="cls-2" d="M38.54,44l0,.06a2.13,2.13,0,0,0,0-.27.43.43,0,0,0-.14-.24h0a.1.1,0,0,1,0,0Z"/>
      <path class="cls-2" d="M57.16,45.74c0-.57,0-1,0-1.34v-.93c0-.3,0-.63,0-1s0-.86,0-1.49,0-1.46-.06-2.48-.07-2.32-.15-3.92c0-.37,0-.76,0-1.17s.06-.82.11-1.21l.12-1,.12-1.4c0-.44,0-.92,0-1.42a13.18,13.18,0,0,1,0-1.42c0-.58.07-1.16.07-1.76V21.78a2,2,0,0,0-.19-.94c-.13-.23-.43-.35-.9-.35H52.06a1.18,1.18,0,0,0-.81.2.84.84,0,0,0-.2.62c0,.29,0,.59,0,.9s0,.53,0,.66,0,.3,0,.72-.06,1-.1,1.57-.07,1.27-.11,2-.07,1.38-.1,2-.05,1.14-.08,1.58,0,.69,0,.74c-.13.21-.32.1-.58-.33a12.18,12.18,0,0,1-.84-1.78c-.29-.75-.61-1.6-1-2.55s-.64-1.85-.91-2.68-.5-1.54-.68-2.13-.29-.9-.32-.95c-.15-.32-.31-.48-.46-.51a4.88,4.88,0,0,0-.78,0h-3a1.39,1.39,0,0,0-.91.22.56.56,0,0,0-.25.41c0,.1,0,.29,0,.57s0,.56,0,.86V24L41,25.86c.05.57.07,1.13.07,1.67s0,1.08,0,1.6v9.76c.08,1,.12,2,.12,3.12l.06,1.3c0,.43,0,.86,0,1.3,0,.21,0,.5,0,.88s0,.67,0,.87a2.48,2.48,0,0,0,.25.84c.09.14.32.21.68.21h4.32q1,0,1.17-.27a1.25,1.25,0,0,0,.19-.74l-.39-10.66,2.55,7.18c.61,1.73,1.06,2.94,1.34,3.64s.73.85,1.56.85h1.13c.46,0,.87,0,1.2,0h-.07a1.94,1.94,0,0,0,1.53-.21A1.76,1.76,0,0,0,57.16,45.74Z"/>
      <path class="cls-2" d="M60.14,24.38l.07,1.87a15.94,15.94,0,0,1,.08,1.67c0,.55,0,1.08,0,1.6v9.76q.12,1.52.12,3.12c0,.75.08,1.41.08,2s0,1.23-.08,2a1.28,1.28,0,0,0,.11.57,1,1,0,0,0,.3.33.78.78,0,0,0,.33.14h5.17a.9.9,0,0,0,.62-.47,1.15,1.15,0,0,0,.12-.57v-1.2c0-.39,0-.84,0-1.34S67,42.71,67,42s-.07-1.54-.11-2.55-.07-2.21-.1-3.6,0-3-.08-5v-.39a2.46,2.46,0,0,1,0-.37V22.77c0-.43,0-.83,0-1.19a1.33,1.33,0,0,0-.11-.58,1,1,0,0,0-.3-.35.67.67,0,0,0-.33-.14l-.23,0H61.11l-.23,0a.75.75,0,0,0-.34.14,1,1,0,0,0-.29.35,1.33,1.33,0,0,0-.11.58,8.94,8.94,0,0,1,0,1.38C60.15,23.44,60.14,23.91,60.14,24.38Z"/>
      <path class="cls-2" d="M75.65,47.41q1,0,1.17-.27a1.25,1.25,0,0,0,.2-.74l-.39-10.67L79,40.79a1.16,1.16,0,0,0,1.17.78,2.74,2.74,0,0,0,.81-.12,1,1,0,0,0,.59-.42,13.88,13.88,0,0,0,.62-1.4c.23-.6.45-1.18.66-1.76s.46-1.28.74-2.14L83.2,46.4a1.25,1.25,0,0,0,.2.74c.13.18.51.27,1.16.27h4.32c.37,0,.59-.07.68-.21a2.67,2.67,0,0,0,.26-.84c0-.2,0-.5,0-.87s0-.67,0-.88c0-.44,0-.88,0-1.3L89.93,42c0-1.06,0-2.1.12-3.11V29.12c0-.52,0-1.05,0-1.59a16,16,0,0,1,.08-1.68L90.24,24V22.55c0-.3,0-.59,0-.87s0-.46,0-.56a.58.58,0,0,0-.26-.41,1.39,1.39,0,0,0-.91-.22H86a4.66,4.66,0,0,0-.77,0c-.16,0-.32.19-.47.51q0,.08-.39.87c-.23.53-.53,1.18-.88,1.95s-.72,1.59-1.11,2.47-.75,1.7-1.08,2.45-.74,1.63-1.21,2.64l-1.15-2.64c-.32-.75-.69-1.57-1.09-2.45s-.77-1.71-1.11-2.47-.63-1.42-.87-1.95L75.46,21c-.16-.32-.31-.48-.47-.51a4.72,4.72,0,0,0-.78,0h-3a1.42,1.42,0,0,0-.92.22.6.6,0,0,0-.25.41c0,.1,0,.29,0,.56s0,.57,0,.87V24l.08,1.88c0,.57.08,1.13.08,1.68s0,1.07,0,1.59v9.77c.08,1,.11,2,.11,3.11,0,.44,0,.88.06,1.31s0,.86,0,1.3c0,.21,0,.5,0,.88s0,.67,0,.87a2.73,2.73,0,0,0,.25.84c.09.14.32.21.68.21h4.32Z"/>
      <path class="cls-2" d="M97.94,47.41a1.63,1.63,0,0,0,.78-.15.8.8,0,0,0,.37-.38,1.13,1.13,0,0,0,.1-.46,1.41,1.41,0,0,1,0-.39c0-.08,0-.2.08-.36s0-.34.07-.52.05-.35.06-.5,0-.27,0-.35A12.11,12.11,0,0,1,99.68,43c.09-.43.2-.87.33-1.31l.27-1h.41a1.84,1.84,0,0,0,.41,0,4,4,0,0,0,.58,0c.21,0,.41,0,.62,0l0,.23.35,1.74.62,3.56a2.79,2.79,0,0,0,.28.91c.13.24.51.36,1.16.36h3.78a1.36,1.36,0,0,0,1.28-.58,1.74,1.74,0,0,0,.23-1.24c-.07-.39-.15-.74-.23-1.06s-.13-.51-.15-.57V44h0l0-.07-.1-.33,0-.11a.25.25,0,0,1,0-.11s0,0,0,0l-.23-.85a4.19,4.19,0,0,1-.18-.58,2.94,2.94,0,0,0-.1-.39l-.42-1.9-.35-1.44-.55-1.9-.12-1.86c-.23-.75-.44-1.48-.62-2.18s-.36-1.41-.54-2.13v0c-.06-.21-.11-.45-.16-.72a5.33,5.33,0,0,0-.19-.72L105.53,27l-.12-.66L104.6,23c0-.15-.09-.39-.18-.71s-.16-.61-.21-.84a2,2,0,0,0-.29-.62c-.15-.21-.48-.31-1-.31h-2.06a5.94,5.94,0,0,0-1.32.12,2,2,0,0,0-.8.35,1.69,1.69,0,0,0-.48.62l-2.42,9.8c-.1.45-.2.9-.29,1.37s-.17.92-.25,1.36v0c-.13.67-.26,1.36-.39,2.06a17.71,17.71,0,0,1-.51,2.06c-.13.5-.25,1-.37,1.5s-.24,1-.37,1.5l-.5,2a3.39,3.39,0,0,0-.16.61c0,.27-.11.55-.17.83s-.13.56-.2.82-.11.45-.13.58c-.13.6-.11,1,.07,1.13a1.46,1.46,0,0,0,.94.23h4.43Zm2.41-11.54a5.47,5.47,0,0,0,.1-.81c0-.5.23-1.52.28-2.12l.39-2.63L101.9,36H101l-.5,0C100.35,36,100.3,35.92,100.35,35.87Z"/>
      <path class="cls-2" d="M109.64,44l0,.06a2.13,2.13,0,0,0,0-.27.5.5,0,0,0-.14-.24h0l0,0Z"/>
      <path class="cls-2" d="M109.64,44l-.1-.39,0,0,0,.11Z"/>
      <path class="cls-2" d="M114.94,47.49a6.4,6.4,0,0,1,.84-.08h1.87a4.61,4.61,0,0,0,.74.1.53.53,0,0,0,.42-.1h6.31a4.56,4.56,0,0,0,1.3-.13c.27-.09.4-.43.37-1v-.89c0-.41,0-.83,0-1.26s0-.81,0-1.16,0-.55,0-.63a1.78,1.78,0,0,0-.15-.66.79.79,0,0,0-.26-.28.59.59,0,0,0-.29-.07h-4.67a4.71,4.71,0,0,1-1,.09c-.36,0-.79,0-1.28,0V36.72l-.28-6.19v-.4a2.46,2.46,0,0,1,0-.37v-.37l-.23-7.84a1.15,1.15,0,0,0-.12-.57.85.85,0,0,0-.29-.33.67.67,0,0,0-.33-.14l-.23,0h-4.32l-.23,0a.67.67,0,0,0-.33.14.91.91,0,0,0-.3.34,1.36,1.36,0,0,0-.11.58V24.3l.08,1.64c0,.57.07,1.13.07,1.67s0,1.08,0,1.6V39c.08,1,.12,2.05.12,3.11v.28a3.48,3.48,0,0,0,0,.91c0,.3,0,.53,0,.68v.23a3.22,3.22,0,0,0,.08.76,2.75,2.75,0,0,0,0,.4c0,.14,0,.28,0,.4a1.82,1.82,0,0,0,.35,1.28,1.5,1.5,0,0,0,.85.45A3,3,0,0,0,114.94,47.49Z"/>
      <path class="cls-2" d="M34.28,57.28a9.94,9.94,0,0,0-2.2-2A11.7,11.7,0,0,0,29.47,54l-.7-.17-.89-.17L27,53.53l-.72-.1-.91-.07a5.8,5.8,0,0,0-.7,0,3.21,3.21,0,0,0-.68.07,6,6,0,0,0-.82.27,2.39,2.39,0,0,0-1.22.69,2,2,0,0,0-.33,1.26l-.16,22.76c0,.08,0,.19,0,.33s0,.32,0,.55a1.09,1.09,0,0,0,.12.55.94.94,0,0,0,.29.33.73.73,0,0,0,.33.13l.23,0h4.4l.23,0a.65.65,0,0,0,.33-.13,1,1,0,0,0,.3-.33,1.22,1.22,0,0,0,.11-.55c0-.41,0-.88,0-1.43s0-1.1,0-1.66,0-1.1,0-1.64,0-1,0-1.37A11.69,11.69,0,0,0,29.36,73c.44-.06.9-.14,1.4-.25a6,6,0,0,0,1.32-.48,7.32,7.32,0,0,0,3.17-3.43,12.63,12.63,0,0,0,1.11-5.49,9.47,9.47,0,0,0-2.08-6.11Zm-3.91,8.16A7.32,7.32,0,0,1,30,67.1a3.44,3.44,0,0,1-1.28,1.52,2.79,2.79,0,0,1-1.6.19l.31-10.36A2.81,2.81,0,0,1,28.9,59a4.62,4.62,0,0,1,1,1.29A8.2,8.2,0,0,1,30.31,62a11.76,11.76,0,0,1,.16,1.85C30.47,64.33,30.43,64.85,30.37,65.44Z"/>
      <path class="cls-2" d="M54.33,56.65V54.42a1.16,1.16,0,0,0-.11-.57,1,1,0,0,0-.29-.34.87.87,0,0,0-.33-.13,1.25,1.25,0,0,0-.24,0H49a1.11,1.11,0,0,0-.23,0,.76.76,0,0,0-.33.14.78.78,0,0,0-.29.33,1.2,1.2,0,0,0-.12.57l0,3a4.34,4.34,0,0,0,0,.92,4.56,4.56,0,0,1,0,.91,2.47,2.47,0,0,1,0,.44,4.55,4.55,0,0,0,0,.53c0,.26,0,.47,0,.66s0,.35,0,.52a4.43,4.43,0,0,0,0,.52v.66a1.84,1.84,0,0,0,0,.41v.45l-.18,0h-.11a.36.36,0,0,1-.14,0H44.45V63a2.46,2.46,0,0,1,0-.37V58.08c0-.38,0-.78,0-1.19s0-.85,0-1.28,0-.83,0-1.19a1.15,1.15,0,0,0-.12-.57.83.83,0,0,0-.62-.47,1.11,1.11,0,0,0-.23,0H38.93a1.2,1.2,0,0,0-.24,0,.76.76,0,0,0-.33.14,1,1,0,0,0-.29.34,1.19,1.19,0,0,0-.12.58c0,.24,0,.43,0,.58a2.38,2.38,0,0,1,0,.34c0,.21,0,.45-.06.74s0,.53,0,.74L38,58.71a15.81,15.81,0,0,1,.08,1.67c0,.54,0,1.07,0,1.59v9.76c0,1.09.06,2.18,0,3.26s0,2.21,0,3.35c0,.08,0,.19,0,.33s0,.33,0,.56a1.18,1.18,0,0,0,.12.57.85.85,0,0,0,.29.33.76.76,0,0,0,.33.13l.23,0h4.79l.23,0a.87.87,0,0,0,.33-.13.81.81,0,0,0,.29-.34,1.13,1.13,0,0,0,.12-.56c0-.31,0-.71.06-1.19s.08-1.1.12-1.86,0-1.71,0-2.82-.09-2.46-.19-4h2.88c0,.39,0,.67,0,.81v2c0,.41,0,.8,0,1.17,0,.52,0,1,0,1.49v1.5c0,.37,0,.73,0,1.09s0,1,0,1.83a1.27,1.27,0,0,0,.11.56.91.91,0,0,0,.3.34.76.76,0,0,0,.33.13l.23,0h4.32l.23,0a.76.76,0,0,0,.33-.13.91.91,0,0,0,.3-.34,1.27,1.27,0,0,0,.11-.56,2.24,2.24,0,0,1,0-.49V76.06a3.11,3.11,0,0,1,0-.49,3.88,3.88,0,0,0,.06-.53c0-.19,0-.38,0-.56V73.39c0-.76,0-1.5,0-2.24A12.75,12.75,0,0,0,53.91,69v0a11.49,11.49,0,0,1-.12-1.59c0-.37,0-.75,0-1.17A11.53,11.53,0,0,1,54,65.05l.11-1,.12-1.4c0-.45.06-.92.1-1.42s.07-1,.09-1.42a8.43,8.43,0,0,0,0-1.58C54.35,57.79,54.33,57.26,54.33,56.65Z"/>
      <path class="cls-2" d="M72.83,54.37a1.25,1.25,0,0,0-.2-.74q-.19-.27-1.17-.27H67.15c-.37,0-.59.06-.69.2a2.49,2.49,0,0,0-.25.79L66.33,60c0,.47,0,1,0,1.6v3.65c0,.6,0,1.14,0,1.63,0,1-.08,1.94-.08,2.94v3a3.16,3.16,0,0,1-.08.68,2.91,2.91,0,0,1-.27.8,1.76,1.76,0,0,1-.54.64,1.29,1.29,0,0,1-.86.22.9.9,0,0,1-.93-.59,3.45,3.45,0,0,1-.24-1.32L63.18,61c0-.5,0-1,0-1.64V57.61c0-.6,0-1.17,0-1.72s0-1,0-1.48a1.2,1.2,0,0,0-.12-.57.94.94,0,0,0-.29-.33.87.87,0,0,0-.33-.13,1.2,1.2,0,0,0-.24,0H57.61a1.11,1.11,0,0,0-.23,0,.73.73,0,0,0-.33.13.85.85,0,0,0-.29.33,1.18,1.18,0,0,0-.12.57c0,1.71,0,3.47,0,5.27s-.06,3.6-.12,5.39a27.16,27.16,0,0,0,0,3.09q.12,1.74.12,3.09a19.06,19.06,0,0,0,.39,4,7.64,7.64,0,0,0,1.36,3.06A6.17,6.17,0,0,0,61,80.3,11.11,11.11,0,0,0,65.2,81a7,7,0,0,0,5.14-2.27A8.29,8.29,0,0,0,72,76a10.39,10.39,0,0,0,.64-3.58L73,60c0-1,0-2-.1-2.79S72.83,55.4,72.83,54.37Z"/>
      <path class="cls-2" d="M90.5,53.36H86.22a1.17,1.17,0,0,0-.81.19.82.82,0,0,0-.2.63c0,.28,0,.58,0,.89s0,.54,0,.67,0,.29,0,.72-.06.95-.1,1.56-.08,1.28-.11,2-.08,1.38-.1,2,0,1.13-.08,1.58,0,.69,0,.74c-.13.21-.32.1-.58-.33a12.18,12.18,0,0,1-.84-1.78c-.3-.75-.61-1.61-1-2.56s-.64-1.84-.92-2.67-.5-1.54-.68-2.13-.28-.9-.31-1c-.15-.31-.31-.48-.47-.5a4.66,4.66,0,0,0-.77,0h-3a1.46,1.46,0,0,0-.91.21.6.6,0,0,0-.26.41c0,.11,0,.3,0,.57s0,.56,0,.86v1.44l.07,1.88a15.81,15.81,0,0,1,.08,1.67c0,.54,0,1.08,0,1.59v9.77c.08,1,.12,2,.12,3.11l.06,1.31c0,.42,0,.86,0,1.3,0,.21,0,.5,0,.88s0,.66,0,.87a2.67,2.67,0,0,0,.26.84c.09.14.31.21.68.21h4.32c.64,0,1-.09,1.16-.27a1.25,1.25,0,0,0,.2-.74l-.39-10.66q1.64,4.59,2.55,7.18c.61,1.72,1,2.93,1.34,3.64s.73.85,1.56.85h1.12c.47,0,.87,0,1.21,0h-.08A2,2,0,0,0,91,80.11a1.76,1.76,0,0,0,.37-1.5c0-.57,0-1,0-1.34v-.94c0-.3,0-.63,0-1s0-.86,0-1.5,0-1.46-.06-2.47-.08-2.32-.15-3.93q0-.54,0-1.17t.12-1.2l.12-1,.11-1.41a13.18,13.18,0,0,0,0-1.42c0-.5,0-1,0-1.42a16.89,16.89,0,0,0,.08-1.76V54.65a1.94,1.94,0,0,0-.19-.94C91.27,53.47,91,53.36,90.5,53.36Z"/>
      <path class="cls-2" d="M128.5,72.17a9.71,9.71,0,0,0-.93-2.37,21.19,21.19,0,0,0-1.48-2.29c-.55-.74-1.12-1.46-1.72-2.16l-1.71-2a8.66,8.66,0,0,1-.6-.69,2.88,2.88,0,0,1-.4-.76,3.43,3.43,0,0,1-.17-1.93,2.34,2.34,0,0,1,.77-1.27,3.61,3.61,0,0,1,1.41-.71,6.1,6.1,0,0,1,1.7-.21,1.25,1.25,0,0,0,.64-.13.84.84,0,0,0,.31-.31.85.85,0,0,0,.12-.37,2.26,2.26,0,0,0,0-.35l-.71-3.12a3,3,0,0,0-.49-1.09c-.21-.27-.61-.35-1.21-.25-1.14.14-2.29.34-3.45.58a10.92,10.92,0,0,0-3.14,1.18,6.13,6.13,0,0,0-3.21,5.69,8.44,8.44,0,0,0,.54,3.18,14.26,14.26,0,0,0,1.43,2.74A23.72,23.72,0,0,0,118.15,68c.71.79,1.37,1.59,2,2.37l.79,1a3.69,3.69,0,0,1,.55,1.2c.27,1.23-.24,1.84-1.54,1.83a5.14,5.14,0,0,1-1.83-.29c-.44-.19-1-.43-1.58-.72a1.16,1.16,0,0,0-.82-.09c-.23.08-.42.33-.55.77-.06.16-.13.39-.23.71s-.19.63-.3,1-.21.65-.32,1-.19.55-.24.71a1.25,1.25,0,0,0,0,1,1.27,1.27,0,0,0,.77.62l.93.28c.47.14,1,.28,1.53.41s1.11.27,1.65.38a8.18,8.18,0,0,0,1.32.17,18.22,18.22,0,0,0,1.93-.1,8.87,8.87,0,0,0,1.95-.44,6.87,6.87,0,0,0,1.86-1,7.83,7.83,0,0,0,1.69-1.85,5.32,5.32,0,0,0,.94-2.35A6.76,6.76,0,0,0,128.5,72.17Z"/>
      <path class="cls-2" d="M109.6,73.85a24.72,24.72,0,0,1-2.19-3.64A12.75,12.75,0,0,0,106,67.93a2,2,0,0,1-.1-2.11c1.18-2,3.45-6,4.1-7.15a17.56,17.56,0,0,1,1.3-2.2,18.63,18.63,0,0,0,1.17-1.95.79.79,0,0,0-.67-1.21H107a1,1,0,0,0-.92.56c-1.86,3.55-4.55,8.37-6,10.85,0-1,0-1.64,0-1.81V61.37c0-.5,0-1,0-1.53s0-1.07,0-1.65,0-1.3.06-1.81.09-1.09.14-1.76q0-1.26-1.17-1.26H94.76a.93.93,0,0,0-.82,1,5.79,5.79,0,0,1,0,.61,3.86,3.86,0,0,0,0,.58c0,2.07.09,4,.13,6s.06,3.93.06,6v2.75c0,.88,0,1.76,0,2.64s0,1.76,0,2.65v2.81c0,.07,0,.18,0,.32s0,.33,0,.57a1.13,1.13,0,0,0,.12.56.94.94,0,0,0,.29.33.87.87,0,0,0,.33.13l.23,0h4l.24,0a.87.87,0,0,0,.33-.13,1,1,0,0,0,.29-.34,1.14,1.14,0,0,0,.11-.56c.08-1.22.13-2.47.16-3.75s0-2.47,0-3.56v-.66s0-1,0-1.38c1.52,2.53,3.84,6.39,5.64,9.83a1.17,1.17,0,0,0,1,.62l5.07,0a1,1,0,0,0,.82-1.49C112,77.59,111,75.64,109.6,73.85Z"/>
    </g>
  </g>
</svg>
