<svg id="Layer_1" data-name="Layer 1" xmlns="http://www.w3.org/2000/svg" viewBox="0 0 388.09 220">
  <defs>
    <style>
      .cls-1 {
        fill: #d4de24;
      }
    </style>
  </defs>
  <g>
    <path class="cls-1" d="M31.38,73a7.91,7.91,0,0,1-1.48.14H28.42l-1,3.41c-.47,1.61-.87,3.2-1.2,4.76s-.58,3.16-.77,4.77c0,.28,0,.69-.07,1.25s-.12,1.16-.21,1.8S25,90.41,24.91,91a10.4,10.4,0,0,1-.28,1.32,5.41,5.41,0,0,0-.15,1.39,4.13,4.13,0,0,1-.35,1.66,2.91,2.91,0,0,1-1.33,1.39,5.72,5.72,0,0,1-2.82.56H4a5.26,5.26,0,0,1-3.38-.84c-.65-.57-.75-1.93-.28-4.08.1-.47.26-1.18.5-2.11s.46-1.92.7-3,.44-2,.63-3a13.73,13.73,0,0,1,.56-2.18l1.83-7.31q.71-2.67,1.34-5.42T7.19,64A69.35,69.35,0,0,0,9,56.54q.71-3.8,1.41-7.45v.14c.28-1.6.59-3.24.91-4.92S12,41,12.39,39.38L21.11,3.94a6.5,6.5,0,0,1,1.76-2.25A7.12,7.12,0,0,1,25.75.42,22.06,22.06,0,0,1,30.53,0H38c1.87,0,3.07.38,3.58,1.12a7,7,0,0,1,1.06,2.25c.19.84.44,1.84.77,3s.54,2,.64,2.6l3,12.2.42,2.38,1.83,6.6a16.31,16.31,0,0,1,.7,2.59c.19,1,.38,1.85.57,2.6v-.14c.65,2.62,1.31,5.19,2,7.71s2.68,14.61,2.68,14.61l2,6.86,1.27,5.19,1.55,6.87c.09.28.21.75.35,1.4a15.19,15.19,0,0,0,.63,2.1L61.76,83c-.1,0-.14,0-.14-.14a.78.78,0,0,0,.28.56l.42,1.69v-.28a16.11,16.11,0,0,1,.56,2c.28,1.17.56,2.45.85,3.85a6.29,6.29,0,0,1-.85,4.49q-1.26,2.1-4.64,2.1H44.6c-2.35,0-3.75-.44-4.22-1.33a10.06,10.06,0,0,1-1-3.29L37.14,79.85l-1.26-6.29-.14-.84v0a17,17,0,0,0-2.25.14A18,18,0,0,1,31.38,73ZM28.93,54.93c-.29.78.08,1,.64,1s1.17.07,1.83.07H34a.64.64,0,0,0,.64-.66c-.09-2.91-.55-14.75-1.93-20.92-.35-1.58-1.39-1.07-1.75,1.74C29.76,45.19,29,54.82,28.93,54.93ZM61.76,83.26a1.67,1.67,0,0,1,.49.85,5.7,5.7,0,0,1,.07,1l-.42-1.4Z"/>
    <path class="cls-1" d="M96.23,93.67a4.53,4.53,0,0,1-.7,2.68c-.47.65-1.88,1-4.22,1H75.7c-1.32,0-2.14-.26-2.46-.77a9.64,9.64,0,0,1-.92-3c0-.75,0-1.8-.07-3.16s-.07-2.42-.07-3.17c0-1.59,0-3.16-.07-4.71s-.12-3.12-.21-4.71c0-3.84-.14-7.6-.42-11.25V31.22c-.1-1.87-.14-3.79-.14-5.76s-.1-4-.28-6.05l-.29-6.8V7.44c0-1.09,0-2.13.08-3.12s.06-1.68.06-2.05A2.12,2.12,0,0,1,71.83.78,5.21,5.21,0,0,1,75.13,0h11a20,20,0,0,1,2.82.14C89.48.24,90,.85,90.61,2c.09.19.46,1.34,1.12,3.46s1.48,4.68,2.46,7.69,2.09,6.23,3.31,9.67,2.36,6.51,3.44,9.24a44,44,0,0,0,3,6.42c.93,1.55,1.64,1.95,2.11,1.2,0-.18,0-1.08.14-2.68s.19-3.5.28-5.71.21-4.61.35-7.2.28-5,.42-7.2.26-4.09.35-5.65.14-2.42.14-2.61c0-.47,0-1.27-.14-2.4S107.48,4,107.48,3a3.09,3.09,0,0,1,.71-2.26,4.33,4.33,0,0,1,3-.71h15.47c1.69,0,2.77.43,3.24,1.27a7,7,0,0,1,.7,3.4V17.12q0,3.25-.28,6.37c-.1,1.59-.12,3.3-.07,5.13s0,3.54-.07,5.14l-.42,5.06-.43,3.52c-.18,1.4-.33,2.86-.42,4.36s-.14,2.9-.14,4.22q.42,8.71.56,14.2t.22,8.93c0,2.3,0,4.11,0,5.42s-.08,2.51-.08,3.58v3.38c0,1.17.05,2.79.15,4.85.18,2.72-.26,4.53-1.34,5.42s-2.93,1.14-5.56.77H123c-1.21-.09-2.67-.14-4.35-.14h-4.08c-3,0-4.88-1-5.63-3.1q-1.55-3.8-4.85-13.15L94.83,55.13Z"/>
    <path class="cls-1" d="M164,3.94c-.1,1.31-.14,2.74-.14,4.29V35a6.43,6.43,0,0,0,.14,1.34v1.4q.13,10.41.28,17.94t.35,13c.14,3.65.28,6.73.42,9.21s.26,4.64.35,6.47.14,3.44.14,4.85v4.36a4.24,4.24,0,0,1-.42,2,3.26,3.26,0,0,1-1,1.2,2.85,2.85,0,0,1-1.2.49,6.76,6.76,0,0,1-.84.07H145a6.62,6.62,0,0,1-.84-.07,2.85,2.85,0,0,1-1.2-.49,3.26,3.26,0,0,1-1-1.2,4.12,4.12,0,0,1-.43-2q.28-4.08.28-7.17t-.28-7.17q0-5.77-.42-11.26V32.63c-.09-1.87-.14-3.8-.14-5.77s-.09-4-.28-6l-.28-6.75c0-1.69,0-3.4.14-5.14a29.31,29.31,0,0,0-.14-5,4.59,4.59,0,0,1,.42-2.12A3.41,3.41,0,0,1,141.8.58,2.8,2.8,0,0,1,143,.07a6.76,6.76,0,0,1,.84-.07h16.6a6.88,6.88,0,0,1,.85.07,2.8,2.8,0,0,1,1.19.51,3.61,3.61,0,0,1,1.06,1.24A4.59,4.59,0,0,1,164,3.94Z"/>
    <path class="cls-1" d="M217.79,74.23a3.56,3.56,0,0,1-2.11,1.55,10.26,10.26,0,0,1-3,.42,4.16,4.16,0,0,1-4.22-2.81l-8.58-18.28,1.4,38.56a4.53,4.53,0,0,1-.7,2.68c-.47.65-1.87,1-4.22,1H180.8c-1.31,0-2.13-.26-2.46-.77a9.92,9.92,0,0,1-.92-3c0-.75,0-1.81-.06-3.17s-.08-2.41-.08-3.16c0-1.6,0-3.17-.07-4.72s-.11-3.12-.21-4.72c0-3.84-.14-7.6-.42-11.26V31.2c-.09-1.88-.14-3.8-.14-5.77s-.09-4-.28-6.05l-.28-6.79V7.43c0-1.09,0-2.12.07-3.12s.07-1.67.07-2a2.09,2.09,0,0,1,.91-1.48A5.22,5.22,0,0,1,180.24,0h11A20,20,0,0,1,194,.14c.56.1,1.13.7,1.69,1.83l1.48,3.16c.89,1.93,1.94,4.27,3.16,7s2.55,5.74,4,8.93,2.76,6.14,3.94,8.86,2.55,5.91,4.15,9.56Q215,34,216.81,30c1.21-2.72,2.53-5.67,3.93-8.86s2.75-6.17,4-8.93,2.32-5.11,3.17-7,1.31-3,1.4-3.16C229.89.84,230.45.24,231,.14A20,20,0,0,1,233.83,0h11a5.21,5.21,0,0,1,3.3.78A2.1,2.1,0,0,1,249,2.26c0,.38,0,1.07.07,2.05s.07,2,.07,3.12v5.16l-.28,6.79q-.28,3.09-.29,6.05c0,2,0,3.89-.14,5.77V66.5Q248,72,248,77.76c-.09,1.6-.16,3.17-.21,4.72s-.07,3.12-.07,4.71c0,.76,0,1.81-.07,3.17s-.07,2.42-.07,3.17a9.64,9.64,0,0,1-.92,3c-.32.51-1.14.77-2.46.77H228.62c-2.34,0-3.75-.33-4.22-1a4.53,4.53,0,0,1-.7-2.68l1.4-38.56q-1.54,4.64-2.67,7.73c-.75,2.07-1.54,4.18-2.39,6.33A45.44,45.44,0,0,1,217.79,74.23Z"/>
    <path class="cls-1" d="M352.29,32.17v1.34a7.2,7.2,0,0,0,.14,1.35v1.42l1,22.39V75.39c1.78.14,3.32.21,4.64.21a16.16,16.16,0,0,0,3.51-.35h16.88a2.17,2.17,0,0,1,1.06.27,2.61,2.61,0,0,1,.91,1A6.11,6.11,0,0,1,381,78.9c0,.29,0,1,.07,2.31s.1,2.65.14,4.18.07,3,.07,4.54v3.21c.1,2.14-.35,3.38-1.33,3.7a16.19,16.19,0,0,1-4.71.49H352.43a2,2,0,0,1-1.55.35,23.46,23.46,0,0,1-2.67-.35h-6.75a21.24,21.24,0,0,0-3,.28,11.1,11.1,0,0,1-3.73-.07,5.64,5.64,0,0,1-3.09-1.65c-.85-.87-1.27-2.41-1.27-4.61,0-.46,0-.94-.07-1.44s-.07-1-.07-1.45a13.44,13.44,0,0,1-.28-2.75v-.82c0-.55-.05-1.37-.14-2.47a12.7,12.7,0,0,1,.14-3.31v-1q0-5.76-.42-11.25V31.51c-.1-1.88-.14-3.8-.14-5.77s-.1-4-.28-6l-.29-5.93V3.91a4.37,4.37,0,0,1,.43-2.1,3.37,3.37,0,0,1,1-1.23,2.78,2.78,0,0,1,1.2-.51,6.62,6.62,0,0,1,.84-.07h15.61a6.88,6.88,0,0,1,.85.07,2.77,2.77,0,0,1,1.19.5A3.38,3.38,0,0,1,351,1.77a4.36,4.36,0,0,1,.42,2.06Z"/>
    <path class="cls-1" d="M23.15,213.75a4.15,4.15,0,0,1-.42,2,3.45,3.45,0,0,1-1.06,1.17,3,3,0,0,1-1.2.48c-.37,0-.65.07-.84.07H3.74c-.19,0-.47,0-.85-.07a3,3,0,0,1-1.19-.48,3.45,3.45,0,0,1-1.06-1.17,4.15,4.15,0,0,1-.42-2c0-.83,0-1.5.07-2s.07-.9.07-1.18l.57-82.3a7.25,7.25,0,0,1,1.19-4.55,8.7,8.7,0,0,1,4.43-2.48,18.07,18.07,0,0,1,3-1A11.27,11.27,0,0,1,12,120a22.69,22.69,0,0,1,2.53.14q1.34.14,3.3.27l2.6.35c1.08.13,2.19.3,3.31.48s2.2.39,3.23.62,1.88.44,2.54.62a40.34,40.34,0,0,1,9.42,4.62,34.29,34.29,0,0,1,13.43,17,35.08,35.08,0,0,1,2,12.26,45.79,45.79,0,0,1-4,19.86,26.42,26.42,0,0,1-11.46,12.4,20.24,20.24,0,0,1-4.78,1.73,45.19,45.19,0,0,1-5.07.89,38,38,0,0,1-5.62.42c0,1.38,0,3-.07,5s-.07,3.91-.07,5.93,0,4-.07,6S23.15,212.28,23.15,213.75ZM20.9,176c2.06.19,4.27.15,5.79-.7a12.81,12.81,0,0,0,4.62-5.5,24.36,24.36,0,0,0,1.4-6,51,51,0,0,0,.35-5.65,40.42,40.42,0,0,0-.56-6.68,31.87,31.87,0,0,0-1.62-6.2c-.7-1.86-2.43-3.4-3.47-4.63s-4-1.93-5.39-2.11Z"/>
    <path class="cls-1" d="M118.59,213.67a4.3,4.3,0,0,1-.42,2,3.27,3.27,0,0,1-1.06,1.2,2.87,2.87,0,0,1-1.19.49c-.38,0-.66.07-.85.07H99.46c-.19,0-.47,0-.84-.07a2.85,2.85,0,0,1-1.2-.49,3.34,3.34,0,0,1-1-1.2,4.26,4.26,0,0,1-.43-2c.1-3.09.12-5.3.08-6.61s-.08-2.62-.08-3.94v-5.41c0-1.74,0-3.54-.14-5.42-.09-1.34-.14-2.75-.14-4.23v-7.17c0-.53,0-1.51.14-2.94H85.4q.55,8.43.7,14.48c.09,4,.07,7.43-.07,10.2s-.28,5-.42,6.75-.21,3.16-.21,4.29a4.15,4.15,0,0,1-.43,2,3.34,3.34,0,0,1-1,1.2,2.85,2.85,0,0,1-1.2.49c-.37,0-.65.07-.84.07H64.58c-.19,0-.47,0-.84-.07a2.85,2.85,0,0,1-1.2-.49,3.34,3.34,0,0,1-1-1.2,4.24,4.24,0,0,1-.43-2c0-.84,0-1.52.07-2s.08-.92.08-1.2q-.28-6.18-.15-12.08t-.14-11.81V151.28c-.09-1.87-.14-3.79-.14-5.76s-.09-4-.28-6l-.28-6.75c0-.75,0-1.64.07-2.67s.12-1.93.21-2.68c0-.29,0-.7-.07-1.23s-.07-1.23-.07-2.1a4.5,4.5,0,0,1,.42-2.1,3.39,3.39,0,0,1,1.06-1.23,2.8,2.8,0,0,1,1.19-.51,6.88,6.88,0,0,1,.85-.07H80.47a6.88,6.88,0,0,1,.85.07,2.77,2.77,0,0,1,1.19.5,3.28,3.28,0,0,1,1.06,1.2A4.36,4.36,0,0,1,84,124c0,1.32,0,2.76-.07,4.32s-.09,3.09-.14,4.61-.07,2.95-.07,4.32v16.44a6.45,6.45,0,0,0,.14,1.35v1.42h9.28a5.54,5.54,0,0,1,1.13.07,2.4,2.4,0,0,0,.49.07h.42a2.35,2.35,0,0,0,.63-.14v-1.61a7.83,7.83,0,0,1,.14-1.48V151c0-.66,0-1.29.08-1.89s.09-1.24.14-1.9.11-1.44.21-2.38a11.68,11.68,0,0,1,.14-1.89,11.32,11.32,0,0,0,.14-1.62,19.9,19.9,0,0,0,0-3.29,13.22,13.22,0,0,1,.14-3.29L96.93,124a4.43,4.43,0,0,1,.42-2.07,3.31,3.31,0,0,1,1.06-1.21,2.77,2.77,0,0,1,1.19-.5,6.88,6.88,0,0,1,.85-.07h15.61a6.62,6.62,0,0,1,.84.07,2.76,2.76,0,0,1,1.2.5,3.26,3.26,0,0,1,1.05,1.2,4.36,4.36,0,0,1,.42,2.06v8.09q0,3.27.22,5.82a34.09,34.09,0,0,1-.07,5.68q-.15,2.38-.36,5.13c-.14,1.83-.26,3.54-.35,5.13l-.42,5.07-.42,3.52c-.19,1.41-.33,2.87-.42,4.37s-.15,2.91-.15,4.22a43.31,43.31,0,0,0,.43,5.78v-.15a47.75,47.75,0,0,1,.77,7.82q.08,4,.07,8.09v4c0,.66,0,1.34-.07,2s-.12,1.34-.21,1.9a9.56,9.56,0,0,0-.14,1.76v9.72A7.12,7.12,0,0,0,118.59,213.67Z"/>
    <path class="cls-1" d="M151.83,123.94c0,1.6,0,3.38.07,5.36s.07,4,.07,6.2V142q0,3.24-.14,5.92l.28,44.1a12.9,12.9,0,0,0,.84,4.79,3.29,3.29,0,0,0,3.38,2.11,4.47,4.47,0,0,0,3.09-.77,6.23,6.23,0,0,0,2-2.32,10.93,10.93,0,0,0,1-2.88,14.2,14.2,0,0,0,.28-2.46V179.72q0-5.4.28-10.61c.09-1.78.14-3.74.14-5.9V150c0-2.15,0-4.07.14-5.76l-.42-20.51a8.75,8.75,0,0,1,.91-2.86c.33-.49,1.15-.73,2.47-.73h15.61c2.34,0,3.75.33,4.22,1a4.57,4.57,0,0,1,.7,2.67c0,3.74.12,7.1.35,10.1s.35,6.35.35,10.09l-1.54,45.16a38.36,38.36,0,0,1-2.32,13,30.29,30.29,0,0,1-5.84,9.68,25.11,25.11,0,0,1-18.57,8.2Q150,220,144,217.54a22.5,22.5,0,0,1-9.49-7,27.19,27.19,0,0,1-4.92-11,68.88,68.88,0,0,1-1.41-14.62q0-4.92-.42-11.18a90.74,90.74,0,0,1-.14-11.19q.27-9.71.42-19.48t.14-19.05a4.24,4.24,0,0,1,.42-2,3.28,3.28,0,0,1,1.06-1.2,2.87,2.87,0,0,1,1.19-.49,6.88,6.88,0,0,1,.85-.07h16.59a6.88,6.88,0,0,1,.85.07,2.87,2.87,0,0,1,1.19.49,3.37,3.37,0,0,1,1.06,1.2A4.3,4.3,0,0,1,151.83,123.94Z"/>
    <path class="cls-1" d="M220.64,213.81a4.48,4.48,0,0,1-.71,2.67c-.47.66-1.87,1-4.22,1H200.1q-2,0-2.46-.78a9.52,9.52,0,0,1-.91-3c0-.75,0-1.8-.07-3.16s-.07-2.42-.07-3.17c0-1.59,0-3.16-.07-4.71s-.12-3.12-.21-4.71c0-3.85-.15-7.6-.43-11.25V151.36c-.09-1.87-.14-3.79-.14-5.76s-.09-4-.28-6l-.28-6.8v-5.17c0-1.09,0-2.13.07-3.12s.07-1.68.07-2.06a2.09,2.09,0,0,1,.91-1.48,5.22,5.22,0,0,1,3.31-.78h11a20,20,0,0,1,2.81.14c.57.09,1.13.71,1.69,1.83.09.19.47,1.35,1.13,3.46s1.47,4.69,2.46,7.7,2.08,6.23,3.3,9.67,2.37,6.51,3.45,9.24a45.19,45.19,0,0,0,3,6.42c.94,1.55,1.64,2,2.11,1.2,0-.18.05-1.08.14-2.68s.19-3.5.28-5.71.22-4.62.36-7.2.28-5,.42-7.2.26-4.1.35-5.65.14-2.42.14-2.61c0-.47,0-1.27-.14-2.4s-.14-2.21-.14-3.25a3.12,3.12,0,0,1,.7-2.26c.47-.47,1.45-.7,3-.7H251c1.68,0,2.76.43,3.23,1.27a7,7,0,0,1,.71,3.4v12.45q0,3.26-.29,6.37c-.09,1.59-.11,3.3-.07,5.13s0,3.54-.07,5.13l-.42,5.07-.42,3.51c-.19,1.41-.33,2.87-.42,4.36s-.14,2.91-.14,4.22q.42,8.73.56,14.21c.09,3.66.16,6.63.21,8.93s0,4.1,0,5.42-.07,2.5-.07,3.58v3.38c0,1.17,0,2.79.14,4.85.19,2.72-.26,4.53-1.33,5.41s-2.94,1.15-5.56.78h.28c-1.22-.1-2.67-.14-4.36-.14h-4.08c-3,0-4.88-1-5.62-3.1q-1.56-3.8-4.86-13.15t-9.21-25.95Z"/>
    <path class="cls-1" d="M380.1,132a12.39,12.39,0,0,1-.09,1.27,3.52,3.52,0,0,1-.43,1.33,3.2,3.2,0,0,1-1.14,1.11,4.44,4.44,0,0,1-2.33.47A22.34,22.34,0,0,0,370,137a12.85,12.85,0,0,0-5.09,2.55,8.64,8.64,0,0,0-2.8,4.61,12.48,12.48,0,0,0,.63,7,9.79,9.79,0,0,0,1.45,2.76,24.15,24.15,0,0,0,2.15,2.48q2.91,3.42,6.18,7.18c2.17,2.5,4.26,5.11,6.24,7.8a75.55,75.55,0,0,1,5.33,8.29,33.55,33.55,0,0,1,3.35,8.54,24.19,24.19,0,0,1,.47,8.59,19.32,19.32,0,0,1-3.4,8.47,29,29,0,0,1-6.12,6.69,24.93,24.93,0,0,1-6.72,3.72,31,31,0,0,1-7.05,1.61,59.63,59.63,0,0,1-7,.34,26.33,26.33,0,0,1-4.78-.62q-2.94-.6-6-1.34t-5.54-1.49c-1.68-.5-2.8-.84-3.36-1a4,4,0,0,1-2.75-5.73c.19-.57.48-1.42.87-2.56s.77-2.29,1.16-3.48.75-2.34,1.09-3.48.61-2,.81-2.54c.48-1.59,1.15-2.52,2-2.79a4.2,4.2,0,0,1,2.95.31c2.23,1.06,4.15,1.92,5.73,2.6a18,18,0,0,0,6.6,1q7,.09,5.56-6.59a12.59,12.59,0,0,0-2-4.34c-.88-1.19-1.83-2.46-2.84-3.79q-3.33-4.29-7.15-8.57a84.33,84.33,0,0,1-6.94-8.93,51.22,51.22,0,0,1-5.16-9.91,30.51,30.51,0,0,1-2-11.49q.09-7.79,3.31-12.74a23.86,23.86,0,0,1,8.31-7.86A39.87,39.87,0,0,1,358.94,118q6.27-1.33,12.47-2.11,3.24-.52,4.35.89a11.07,11.07,0,0,1,1.79,4Z"/>
    <path class="cls-1" d="M323.09,120H308.92a3.74,3.74,0,0,0-3.3,2c-6.71,12.83-16.45,30.28-21.87,39.23-.12-3.73-.2-5.91-.2-6.55v-5.54c0-1.82,0-3.66.07-5.53s.07-3.87.07-6c0-2.52.07-4.7.21-6.52s.3-3.94.49-6.36q0-4.58-4.22-4.57H264.7q-3,.75-2.95,3.43a15.89,15.89,0,0,1-.15,2.24,16.15,16.15,0,0,0-.14,2.08q.29,11.21.5,21.55t.21,21.84v9.94q0,4.75.07,9.52c0,3.17.07,6.36.07,9.58v10.15c0,.28,0,.68-.07,1.19s-.07,1.19-.07,2a4.23,4.23,0,0,0,.42,2,3.31,3.31,0,0,0,1.05,1.19,2.91,2.91,0,0,0,1.2.49c.37,0,.66.07.84.07h14.49c.19,0,.47,0,.84-.07a2.85,2.85,0,0,0,1.2-.49,3.34,3.34,0,0,0,1.05-1.2,4.15,4.15,0,0,0,.43-2q.42-6.61.56-13.57t.14-12.87v-2.37s-.06-3.52-.13-5c5.47,9.16,13.85,23.1,20.36,35.53a4.19,4.19,0,0,0,3.74,2.24l18.33-.06a3.53,3.53,0,0,0,3-5.41c-2.81-4.41-6.38-11.48-11.32-18a88.39,88.39,0,0,1-7.9-13.12,45.54,45.54,0,0,0-5-8.25,7.15,7.15,0,0,1-.35-7.65c4.24-7.39,12.47-21.86,14.81-25.85.32-.53,2.94-5.81,4.71-7.93,1.32-1.57,3.21-5.38,4.23-7.06a2.87,2.87,0,0,0-2.45-4.36Z"/>
    <path class="cls-1" d="M320.73,90.74c-.28-1.4-.56-2.68-.84-3.85a16.11,16.11,0,0,0-.56-2v.28l-.07-.27.07.22a5.63,5.63,0,0,0-.08-1,1.6,1.6,0,0,0-.49-.85h0a.71.71,0,0,1-.14-.38.12.12,0,0,0,.14.14L317.92,80a15.19,15.19,0,0,1-.63-2.1,12.58,12.58,0,0,0-.36-1.4l-1.54-6.87-1.27-5.19-1.49-5.19a16.34,16.34,0,0,1-.59-3.41l-.2-3.22a15,15,0,0,0-.64-3.51c-.63-2.11-1.21-4.15-1.72-6.14-.66-2.52-1.31-5.09-2-7.71v.14c-.19-.75-.38-1.62-.56-2.6a15.27,15.27,0,0,0-.71-2.59l-1.82-6.6L304,21.18,301,9c-.09-.56-.31-1.43-.63-2.6s-.59-2.17-.78-3a6.92,6.92,0,0,0-1.05-2.25C298.06.38,296.87,0,295,0h-7.45a22,22,0,0,0-4.78.42,7.23,7.23,0,0,0-2.89,1.27,6.62,6.62,0,0,0-1.76,2.25l-8.72,35.44c-.37,1.6-.72,3.24-1.05,4.93s-.63,3.32-.91,4.92v-.14q-.71,3.66-1.41,7.45A67.09,67.09,0,0,1,264.19,64c-.47,1.78-.91,3.58-1.34,5.41s-.86,3.64-1.33,5.42l-1.83,7.31a11.83,11.83,0,0,0-.56,2.18c-.19,1-.4,2-.64,3s-.47,2-.7,3-.4,1.64-.49,2.11c-.47,2.15-.38,3.51.28,4.08a5.26,5.26,0,0,0,3.38.84h16a5.66,5.66,0,0,0,2.81-.56,2.93,2.93,0,0,0,1.34-1.39,4.3,4.3,0,0,0,.35-1.66,6,6,0,0,1,.14-1.39,8.88,8.88,0,0,0,.28-1.32c.1-.6.19-1.23.28-1.88s.17-1.25.21-1.8.08-1,.08-1.25c.18-1.61.44-3.2.77-4.77s.72-3.15,1.19-4.76l1-3.41h1.48a7.8,7.8,0,0,0,1.47-.14,17.77,17.77,0,0,0,2.11-.14,17,17,0,0,1,2.25-.14l.14.84,1.27,6.29,2.25,12.86a10.07,10.07,0,0,0,1,3.29c.47.89,1.88,1.33,4.22,1.33h13.65c2.25,0,3.79-.7,4.64-2.1A6.34,6.34,0,0,0,320.73,90.74ZM291.16,56h-2.55c-.66,0-1.27,0-1.83-.07s-.93-.25-.64-1c.06-.11.83-9.74,2-18.74.36-2.81,1.4-3.32,1.75-1.74,1.38,6.17,1.84,18,1.93,20.92A.64.64,0,0,1,291.16,56Z"/>
  </g>
</svg>
